G04 #@! TF.GenerationSoftware,KiCad,Pcbnew,(5.0.0)*
G04 #@! TF.CreationDate,2019-09-03T16:24:45-07:00*
G04 #@! TF.ProjectId,Sequence Controller,53657175656E636520436F6E74726F6C,rev?*
G04 #@! TF.SameCoordinates,Original*
G04 #@! TF.FileFunction,Copper,L2,Bot,Signal*
G04 #@! TF.FilePolarity,Positive*
%FSLAX46Y46*%
G04 Gerber Fmt 4.6, Leading zero omitted, Abs format (unit mm)*
G04 Created by KiCad (PCBNEW (5.0.0)) date 09/03/19 16:24:45*
%MOMM*%
%LPD*%
G01*
G04 APERTURE LIST*
G04 #@! TA.AperFunction,ComponentPad*
%ADD10C,1.700000*%
G04 #@! TD*
G04 #@! TA.AperFunction,ComponentPad*
%ADD11O,1.700000X1.700000*%
G04 #@! TD*
G04 #@! TA.AperFunction,ComponentPad*
%ADD12R,1.700000X1.700000*%
G04 #@! TD*
G04 #@! TA.AperFunction,ViaPad*
%ADD13C,0.800000*%
G04 #@! TD*
G04 #@! TA.AperFunction,Conductor*
%ADD14C,0.500000*%
G04 #@! TD*
G04 #@! TA.AperFunction,Conductor*
%ADD15C,1.000000*%
G04 #@! TD*
G04 APERTURE END LIST*
D10*
G04 #@! TO.P,U1,1*
G04 #@! TO.N,Net-(U1-Pad1)*
X112776000Y-75565000D03*
G04 #@! TO.P,U1,2*
G04 #@! TO.N,Net-(U1-Pad2)*
X112776000Y-78105000D03*
G04 #@! TO.P,U1,3*
G04 #@! TO.N,Net-(U1-Pad3)*
X112776000Y-80645000D03*
G04 #@! TO.P,U1,4*
G04 #@! TO.N,Net-(U1-Pad4)*
X112776000Y-83185000D03*
G04 #@! TO.P,U1,5*
G04 #@! TO.N,Net-(U1-Pad5)*
X112776000Y-85725000D03*
G04 #@! TO.P,U1,6*
G04 #@! TO.N,Net-(ExtOut1-Pad3)*
X112776000Y-88265000D03*
G04 #@! TO.P,U1,7*
G04 #@! TO.N,Net-(ExtOut1-Pad4)*
X112776000Y-90805000D03*
G04 #@! TO.P,U1,8*
G04 #@! TO.N,Net-(ExtOut1-Pad5)*
X112776000Y-93345000D03*
G04 #@! TO.P,U1,9*
G04 #@! TO.N,Net-(ExtOut1-Pad6)*
X112776000Y-95885000D03*
G04 #@! TO.P,U1,10*
G04 #@! TO.N,Net-(ExtOut1-Pad7)*
X112776000Y-98425000D03*
G04 #@! TO.P,U1,11*
G04 #@! TO.N,Net-(ExtOut1-Pad8)*
X112776000Y-100965000D03*
G04 #@! TO.P,U1,12*
G04 #@! TO.N,Net-(ExtOut1-Pad2)*
X112776000Y-103505000D03*
G04 #@! TO.P,U1,13*
G04 #@! TO.N,Net-(ExtOut1-Pad1)*
X112776000Y-106045000D03*
G04 #@! TO.P,U1,14*
G04 #@! TO.N,/GND*
X112776000Y-108585000D03*
G04 #@! TO.P,U1,15*
G04 #@! TO.N,Net-(J1-Pad1)*
X112776000Y-111125000D03*
G04 #@! TO.P,U1,16*
G04 #@! TO.N,Net-(U1-Pad16)*
X138176000Y-111125000D03*
G04 #@! TO.P,U1,17*
G04 #@! TO.N,/GND*
X138176000Y-108585000D03*
G04 #@! TO.P,U1,18*
G04 #@! TO.N,Net-(U1-Pad18)*
X138176000Y-106045000D03*
G04 #@! TO.P,U1,19*
G04 #@! TO.N,Net-(ExtIn1-Pad8)*
X138176000Y-103505000D03*
G04 #@! TO.P,U1,20*
G04 #@! TO.N,Net-(ExtIn1-Pad7)*
X138176000Y-100965000D03*
G04 #@! TO.P,U1,21*
G04 #@! TO.N,Net-(U1-Pad21)*
X138176000Y-98425000D03*
G04 #@! TO.P,U1,22*
G04 #@! TO.N,Net-(U1-Pad22)*
X138176000Y-95885000D03*
G04 #@! TO.P,U1,23*
G04 #@! TO.N,Net-(ExtIn1-Pad6)*
X138176000Y-93345000D03*
G04 #@! TO.P,U1,24*
G04 #@! TO.N,Net-(ExtIn1-Pad5)*
X138176000Y-90805000D03*
G04 #@! TO.P,U1,25*
G04 #@! TO.N,Net-(ExtIn1-Pad4)*
X138176000Y-88265000D03*
G04 #@! TO.P,U1,26*
G04 #@! TO.N,Net-(ExtIn1-Pad3)*
X138176000Y-85725000D03*
G04 #@! TO.P,U1,27*
G04 #@! TO.N,Net-(U1-Pad27)*
X138176000Y-83185000D03*
G04 #@! TO.P,U1,28*
G04 #@! TO.N,Net-(U1-Pad28)*
X138176000Y-80645000D03*
G04 #@! TO.P,U1,29*
G04 #@! TO.N,Net-(ExtIn1-Pad2)*
X138176000Y-78105000D03*
G04 #@! TO.P,U1,30*
G04 #@! TO.N,Net-(ExtIn1-Pad1)*
X138176000Y-75565000D03*
G04 #@! TD*
D11*
G04 #@! TO.P,ExtIn1,9*
G04 #@! TO.N,/GND*
X134112000Y-100140000D03*
G04 #@! TO.P,ExtIn1,8*
G04 #@! TO.N,Net-(ExtIn1-Pad8)*
X134112000Y-97600000D03*
G04 #@! TO.P,ExtIn1,7*
G04 #@! TO.N,Net-(ExtIn1-Pad7)*
X134112000Y-95060000D03*
G04 #@! TO.P,ExtIn1,6*
G04 #@! TO.N,Net-(ExtIn1-Pad6)*
X134112000Y-92520000D03*
G04 #@! TO.P,ExtIn1,5*
G04 #@! TO.N,Net-(ExtIn1-Pad5)*
X134112000Y-89980000D03*
G04 #@! TO.P,ExtIn1,4*
G04 #@! TO.N,Net-(ExtIn1-Pad4)*
X134112000Y-87440000D03*
G04 #@! TO.P,ExtIn1,3*
G04 #@! TO.N,Net-(ExtIn1-Pad3)*
X134112000Y-84900000D03*
G04 #@! TO.P,ExtIn1,2*
G04 #@! TO.N,Net-(ExtIn1-Pad2)*
X134112000Y-82360000D03*
D12*
G04 #@! TO.P,ExtIn1,1*
G04 #@! TO.N,Net-(ExtIn1-Pad1)*
X134112000Y-79820000D03*
G04 #@! TD*
G04 #@! TO.P,ExtOut1,1*
G04 #@! TO.N,Net-(ExtOut1-Pad1)*
X116820000Y-79820000D03*
D11*
G04 #@! TO.P,ExtOut1,2*
G04 #@! TO.N,Net-(ExtOut1-Pad2)*
X116820000Y-82360000D03*
G04 #@! TO.P,ExtOut1,3*
G04 #@! TO.N,Net-(ExtOut1-Pad3)*
X116820000Y-84900000D03*
G04 #@! TO.P,ExtOut1,4*
G04 #@! TO.N,Net-(ExtOut1-Pad4)*
X116820000Y-87440000D03*
G04 #@! TO.P,ExtOut1,5*
G04 #@! TO.N,Net-(ExtOut1-Pad5)*
X116820000Y-89980000D03*
G04 #@! TO.P,ExtOut1,6*
G04 #@! TO.N,Net-(ExtOut1-Pad6)*
X116820000Y-92520000D03*
G04 #@! TO.P,ExtOut1,7*
G04 #@! TO.N,Net-(ExtOut1-Pad7)*
X116820000Y-95060000D03*
G04 #@! TO.P,ExtOut1,8*
G04 #@! TO.N,Net-(ExtOut1-Pad8)*
X116820000Y-97600000D03*
G04 #@! TO.P,ExtOut1,9*
G04 #@! TO.N,/GND*
X116820000Y-100140000D03*
G04 #@! TD*
G04 #@! TO.P,J1,11*
G04 #@! TO.N,Net-(J1-Pad11)*
X138158220Y-123967240D03*
G04 #@! TO.P,J1,10*
G04 #@! TO.N,Net-(J1-Pad10)*
X135618220Y-123967240D03*
G04 #@! TO.P,J1,9*
G04 #@! TO.N,Net-(J1-Pad9)*
X133078220Y-123967240D03*
G04 #@! TO.P,J1,8*
G04 #@! TO.N,Net-(J1-Pad8)*
X130538220Y-123967240D03*
G04 #@! TO.P,J1,7*
G04 #@! TO.N,Net-(J1-Pad7)*
X127998220Y-123967240D03*
G04 #@! TO.P,J1,6*
G04 #@! TO.N,Net-(J1-Pad6)*
X125458220Y-123967240D03*
G04 #@! TO.P,J1,5*
G04 #@! TO.N,Net-(J1-Pad5)*
X122918220Y-123967240D03*
G04 #@! TO.P,J1,4*
G04 #@! TO.N,Net-(J1-Pad4)*
X120378220Y-123967240D03*
G04 #@! TO.P,J1,3*
G04 #@! TO.N,/GND*
X117838220Y-123967240D03*
G04 #@! TO.P,J1,2*
X115298220Y-123967240D03*
D12*
G04 #@! TO.P,J1,1*
G04 #@! TO.N,Net-(J1-Pad1)*
X112758220Y-123967240D03*
G04 #@! TD*
D13*
G04 #@! TO.N,Net-(ExtIn1-Pad8)*
X133357620Y-117955060D03*
X132102860Y-99783900D03*
G04 #@! TO.N,Net-(ExtIn1-Pad6)*
X128534160Y-117878860D03*
X128562100Y-97914460D03*
G04 #@! TO.N,Net-(ExtIn1-Pad4)*
X123750000Y-96750000D03*
X123537980Y-117822980D03*
G04 #@! TO.N,Net-(ExtIn1-Pad2)*
X118099840Y-117764560D03*
X121241820Y-93174820D03*
G04 #@! TO.N,Net-(ExtOut1-Pad1)*
X117330000Y-106060000D03*
G04 #@! TO.N,Net-(ExtOut1-Pad2)*
X117050000Y-103540000D03*
G04 #@! TO.N,Net-(J1-Pad4)*
X120436640Y-114137440D03*
X120436640Y-115171220D03*
G04 #@! TO.N,Net-(J1-Pad5)*
X122829320Y-119105680D03*
X122829320Y-120139460D03*
G04 #@! TO.N,Net-(J1-Pad6)*
X125541400Y-115104520D03*
X125564900Y-114142520D03*
G04 #@! TO.N,Net-(J1-Pad7)*
X127960120Y-119105680D03*
X127977900Y-120157240D03*
G04 #@! TO.N,Net-(J1-Pad8)*
X130525520Y-114061240D03*
X130505200Y-115115340D03*
G04 #@! TO.N,Net-(J1-Pad11)*
X138066780Y-120063260D03*
X139062460Y-120063260D03*
G04 #@! TO.N,Net-(J1-Pad10)*
X135577580Y-115326160D03*
X135595360Y-114180620D03*
G04 #@! TO.N,Net-(J1-Pad9)*
X133126480Y-119143780D03*
X133126480Y-120119140D03*
G04 #@! TD*
D14*
G04 #@! TO.N,Net-(ExtIn1-Pad8)*
X133352540Y-107518200D02*
X133357620Y-117955060D01*
X132069840Y-105791000D02*
X133352540Y-107518200D01*
X132102860Y-99783900D02*
X132069840Y-105791000D01*
G04 #@! TO.N,Net-(ExtIn1-Pad6)*
X128513840Y-117894100D02*
X128562100Y-97914460D01*
G04 #@! TO.N,Net-(ExtIn1-Pad4)*
X123517660Y-117817900D02*
X123750000Y-96750000D01*
G04 #@! TO.N,Net-(ExtIn1-Pad2)*
X118076980Y-109715300D02*
X118099840Y-117764560D01*
X121241820Y-93174820D02*
X121241820Y-105699560D01*
X121241820Y-105699560D02*
X118076980Y-109715300D01*
G04 #@! TO.N,Net-(ExtOut1-Pad1)*
X112760001Y-106070001D02*
X117330000Y-106060000D01*
G04 #@! TO.N,Net-(ExtOut1-Pad2)*
X112760001Y-103530001D02*
X117050000Y-103540000D01*
D15*
G04 #@! TO.N,Net-(J1-Pad4)*
X120378220Y-123967240D02*
X120436640Y-115171220D01*
X120436640Y-115171220D02*
X120436640Y-114137440D01*
G04 #@! TO.N,Net-(J1-Pad5)*
X122918220Y-123967240D02*
X122829320Y-120139460D01*
X122829320Y-120139460D02*
X122829320Y-119105680D01*
G04 #@! TO.N,Net-(J1-Pad6)*
X125458220Y-123967240D02*
X125541400Y-115104520D01*
X125564900Y-114142520D02*
X125541400Y-115104520D01*
G04 #@! TO.N,Net-(J1-Pad7)*
X127998220Y-123967240D02*
X127977900Y-120157240D01*
X127977900Y-120157240D02*
X127960120Y-119105680D01*
G04 #@! TO.N,Net-(J1-Pad8)*
X130538220Y-123967240D02*
X130505200Y-115115340D01*
X130505200Y-115115340D02*
X130525520Y-114061240D01*
G04 #@! TO.N,Net-(J1-Pad11)*
X138158220Y-123967240D02*
X138066780Y-120063260D01*
X138066780Y-120063260D02*
X139062460Y-120063260D01*
G04 #@! TO.N,Net-(J1-Pad10)*
X135618220Y-123967240D02*
X135577580Y-115326160D01*
X135577580Y-115326160D02*
X135595360Y-114180620D01*
G04 #@! TO.N,Net-(J1-Pad9)*
X133078220Y-123967240D02*
X133126480Y-120119140D01*
X133126480Y-120119140D02*
X133126480Y-119143780D01*
G04 #@! TD*
M02*
