G04 #@! TF.GenerationSoftware,KiCad,Pcbnew,(5.0.0)*
G04 #@! TF.CreationDate,2019-09-03T16:24:46-07:00*
G04 #@! TF.ProjectId,Sequence Controller,53657175656E636520436F6E74726F6C,rev?*
G04 #@! TF.SameCoordinates,Original*
G04 #@! TF.FileFunction,Soldermask,Top*
G04 #@! TF.FilePolarity,Negative*
%FSLAX46Y46*%
G04 Gerber Fmt 4.6, Leading zero omitted, Abs format (unit mm)*
G04 Created by KiCad (PCBNEW (5.0.0)) date 09/03/19 16:24:46*
%MOMM*%
%LPD*%
G01*
G04 APERTURE LIST*
%ADD10C,2.100000*%
%ADD11O,2.100000X2.100000*%
%ADD12R,2.100000X2.100000*%
%ADD13R,1.300000X1.200000*%
G04 APERTURE END LIST*
D10*
G04 #@! TO.C,U1*
X112776000Y-75565000D03*
X112776000Y-78105000D03*
X112776000Y-80645000D03*
X112776000Y-83185000D03*
X112776000Y-85725000D03*
X112776000Y-88265000D03*
X112776000Y-90805000D03*
X112776000Y-93345000D03*
X112776000Y-95885000D03*
X112776000Y-98425000D03*
X112776000Y-100965000D03*
X112776000Y-103505000D03*
X112776000Y-106045000D03*
X112776000Y-108585000D03*
X112776000Y-111125000D03*
X138176000Y-111125000D03*
X138176000Y-108585000D03*
X138176000Y-106045000D03*
X138176000Y-103505000D03*
X138176000Y-100965000D03*
X138176000Y-98425000D03*
X138176000Y-95885000D03*
X138176000Y-93345000D03*
X138176000Y-90805000D03*
X138176000Y-88265000D03*
X138176000Y-85725000D03*
X138176000Y-83185000D03*
X138176000Y-80645000D03*
X138176000Y-78105000D03*
X138176000Y-75565000D03*
G04 #@! TD*
D11*
G04 #@! TO.C,ExtIn1*
X134112000Y-100140000D03*
X134112000Y-97600000D03*
X134112000Y-95060000D03*
X134112000Y-92520000D03*
X134112000Y-89980000D03*
X134112000Y-87440000D03*
X134112000Y-84900000D03*
X134112000Y-82360000D03*
D12*
X134112000Y-79820000D03*
G04 #@! TD*
G04 #@! TO.C,ExtOut1*
X116820000Y-79820000D03*
D11*
X116820000Y-82360000D03*
X116820000Y-84900000D03*
X116820000Y-87440000D03*
X116820000Y-89980000D03*
X116820000Y-92520000D03*
X116820000Y-95060000D03*
X116820000Y-97600000D03*
X116820000Y-100140000D03*
G04 #@! TD*
D13*
G04 #@! TO.C,Q1*
X119051400Y-115004520D03*
X117051400Y-115954520D03*
X117051400Y-114054520D03*
G04 #@! TD*
G04 #@! TO.C,Q2*
X119551400Y-119124520D03*
X119551400Y-121024520D03*
X121551400Y-120074520D03*
G04 #@! TD*
G04 #@! TO.C,Q3*
X124191400Y-115004520D03*
X122191400Y-115954520D03*
X122191400Y-114054520D03*
G04 #@! TD*
G04 #@! TO.C,Q4*
X126681400Y-120074520D03*
X124681400Y-121024520D03*
X124681400Y-119124520D03*
G04 #@! TD*
G04 #@! TO.C,Q5*
X127031400Y-114054520D03*
X127031400Y-115954520D03*
X129031400Y-115004520D03*
G04 #@! TD*
G04 #@! TO.C,Q6*
X129851400Y-119124520D03*
X129851400Y-121024520D03*
X131851400Y-120074520D03*
G04 #@! TD*
G04 #@! TO.C,Q7*
X133911400Y-115004520D03*
X131911400Y-115954520D03*
X131911400Y-114054520D03*
G04 #@! TD*
G04 #@! TO.C,Q8*
X134681400Y-119124520D03*
X134681400Y-121024520D03*
X136681400Y-120074520D03*
G04 #@! TD*
D11*
G04 #@! TO.C,J1*
X138158220Y-123967240D03*
X135618220Y-123967240D03*
X133078220Y-123967240D03*
X130538220Y-123967240D03*
X127998220Y-123967240D03*
X125458220Y-123967240D03*
X122918220Y-123967240D03*
X120378220Y-123967240D03*
X117838220Y-123967240D03*
X115298220Y-123967240D03*
D12*
X112758220Y-123967240D03*
G04 #@! TD*
M02*
