M48
;DRILL file {KiCad (5.0.0)} date 08/02/19 15:13:04
;FORMAT={-:-/ absolute / inch / decimal}
FMAT,2
INCH,TZ
T1C0.0157
T2C0.0394
%
G90
G05
M72
T1
X4.6083Y-4.0764
X4.6193Y-4.1756
X4.6602Y-4.4559
X4.7502Y-4.3402
X4.7508Y-4.3031
X4.7835Y-3.6713
X4.8457Y-4.5043
X4.8457Y-4.5469
X4.872Y-3.8091
X4.872Y-4.4587
X4.9512Y-4.3437
X4.9528Y-4.3039
X5.0474Y-4.5409
X5.0476Y-4.5051
X5.0689Y-3.8681
X5.0689Y-4.4587
X5.1465Y-4.3035
X5.1487Y-4.3409
X5.2492Y-4.5047
X5.2493Y-4.5409
X5.2575Y-3.9433
X5.2579Y-4.4547
X5.3491Y-4.3421
X5.3492Y-4.3039
X5.4469Y-4.5488
X5.448Y-4.5024
T2
X4.5992Y-3.1425
X4.5992Y-3.2425
X4.5992Y-3.3425
X4.5992Y-3.4425
X4.5992Y-3.5425
X4.5992Y-3.6425
X4.5992Y-3.7425
X4.5992Y-3.8425
X4.5992Y-3.9425
X4.4394Y-2.976
X4.4394Y-3.076
X4.4394Y-3.176
X4.4394Y-3.276
X4.4394Y-3.376
X4.4394Y-3.476
X4.4394Y-3.576
X4.4394Y-3.676
X4.4394Y-3.776
X4.4394Y-3.876
X4.4394Y-3.976
X4.4394Y-4.076
X4.4394Y-4.176
X4.4394Y-4.276
X4.4394Y-4.376
X5.5394Y-2.976
X5.5394Y-3.076
X5.5394Y-3.176
X5.5394Y-3.276
X5.5394Y-3.376
X5.5394Y-3.476
X5.5394Y-3.576
X5.5394Y-3.676
X5.5394Y-3.776
X5.5394Y-3.876
X5.5394Y-3.976
X5.5394Y-4.076
X5.5394Y-4.176
X5.5394Y-4.276
X5.5394Y-4.376
X4.4441Y-4.6827
X4.5441Y-4.6827
X4.748Y-4.6827
X4.848Y-4.6827
X4.948Y-4.6827
X5.048Y-4.6827
X5.148Y-4.6827
X5.248Y-4.6827
X5.348Y-4.6827
X5.448Y-4.6827
X5.548Y-4.6827
X5.3705Y-3.1425
X5.3705Y-3.2425
X5.3705Y-3.3425
X5.3705Y-3.4425
X5.3705Y-3.5425
X5.3705Y-3.6425
X5.3705Y-3.7425
X5.3705Y-3.8425
X5.3705Y-3.9425
T0
M30
