G04 #@! TF.GenerationSoftware,KiCad,Pcbnew,(5.0.0)*
G04 #@! TF.CreationDate,2019-08-02T15:13:00-07:00*
G04 #@! TF.ProjectId,Sequence Controller,53657175656E636520436F6E74726F6C,rev?*
G04 #@! TF.SameCoordinates,Original*
G04 #@! TF.FileFunction,Legend,Top*
G04 #@! TF.FilePolarity,Positive*
%FSLAX46Y46*%
G04 Gerber Fmt 4.6, Leading zero omitted, Abs format (unit mm)*
G04 Created by KiCad (PCBNEW (5.0.0)) date 08/02/19 15:13:00*
%MOMM*%
%LPD*%
G01*
G04 APERTURE LIST*
%ADD10C,0.300000*%
%ADD11C,0.100000*%
%ADD12C,0.120000*%
G04 APERTURE END LIST*
D10*
X111125714Y-115378571D02*
X111125714Y-113878571D01*
X111697142Y-113878571D01*
X111840000Y-113950000D01*
X111911428Y-114021428D01*
X111982857Y-114164285D01*
X111982857Y-114378571D01*
X111911428Y-114521428D01*
X111840000Y-114592857D01*
X111697142Y-114664285D01*
X111125714Y-114664285D01*
X112840000Y-115378571D02*
X112697142Y-115307142D01*
X112625714Y-115235714D01*
X112554285Y-115092857D01*
X112554285Y-114664285D01*
X112625714Y-114521428D01*
X112697142Y-114450000D01*
X112840000Y-114378571D01*
X113054285Y-114378571D01*
X113197142Y-114450000D01*
X113268571Y-114521428D01*
X113340000Y-114664285D01*
X113340000Y-115092857D01*
X113268571Y-115235714D01*
X113197142Y-115307142D01*
X113054285Y-115378571D01*
X112840000Y-115378571D01*
X113840000Y-114378571D02*
X114125714Y-115378571D01*
X114411428Y-114664285D01*
X114697142Y-115378571D01*
X114982857Y-114378571D01*
X116125714Y-115307142D02*
X115982857Y-115378571D01*
X115697142Y-115378571D01*
X115554285Y-115307142D01*
X115482857Y-115164285D01*
X115482857Y-114592857D01*
X115554285Y-114450000D01*
X115697142Y-114378571D01*
X115982857Y-114378571D01*
X116125714Y-114450000D01*
X116197142Y-114592857D01*
X116197142Y-114735714D01*
X115482857Y-114878571D01*
X116840000Y-115378571D02*
X116840000Y-114378571D01*
X116840000Y-114664285D02*
X116911428Y-114521428D01*
X116982857Y-114450000D01*
X117125714Y-114378571D01*
X117268571Y-114378571D01*
X122640000Y-116178571D02*
X123640000Y-116178571D01*
X122997142Y-117678571D01*
X120427142Y-116821428D02*
X120284285Y-116750000D01*
X120212857Y-116678571D01*
X120141428Y-116535714D01*
X120141428Y-116464285D01*
X120212857Y-116321428D01*
X120284285Y-116250000D01*
X120427142Y-116178571D01*
X120712857Y-116178571D01*
X120855714Y-116250000D01*
X120927142Y-116321428D01*
X120998571Y-116464285D01*
X120998571Y-116535714D01*
X120927142Y-116678571D01*
X120855714Y-116750000D01*
X120712857Y-116821428D01*
X120427142Y-116821428D01*
X120284285Y-116892857D01*
X120212857Y-116964285D01*
X120141428Y-117107142D01*
X120141428Y-117392857D01*
X120212857Y-117535714D01*
X120284285Y-117607142D01*
X120427142Y-117678571D01*
X120712857Y-117678571D01*
X120855714Y-117607142D01*
X120927142Y-117535714D01*
X120998571Y-117392857D01*
X120998571Y-117107142D01*
X120927142Y-116964285D01*
X120855714Y-116892857D01*
X120712857Y-116821428D01*
X138838571Y-117678571D02*
X137981428Y-117678571D01*
X138410000Y-117678571D02*
X138410000Y-116178571D01*
X138267142Y-116392857D01*
X138124285Y-116535714D01*
X137981428Y-116607142D01*
X130995714Y-116678571D02*
X130995714Y-117678571D01*
X130638571Y-116107142D02*
X130281428Y-117178571D01*
X131210000Y-117178571D01*
X128577142Y-116178571D02*
X127862857Y-116178571D01*
X127791428Y-116892857D01*
X127862857Y-116821428D01*
X128005714Y-116750000D01*
X128362857Y-116750000D01*
X128505714Y-116821428D01*
X128577142Y-116892857D01*
X128648571Y-117035714D01*
X128648571Y-117392857D01*
X128577142Y-117535714D01*
X128505714Y-117607142D01*
X128362857Y-117678571D01*
X128005714Y-117678571D01*
X127862857Y-117607142D01*
X127791428Y-117535714D01*
X126045714Y-116178571D02*
X125760000Y-116178571D01*
X125617142Y-116250000D01*
X125545714Y-116321428D01*
X125402857Y-116535714D01*
X125331428Y-116821428D01*
X125331428Y-117392857D01*
X125402857Y-117535714D01*
X125474285Y-117607142D01*
X125617142Y-117678571D01*
X125902857Y-117678571D01*
X126045714Y-117607142D01*
X126117142Y-117535714D01*
X126188571Y-117392857D01*
X126188571Y-117035714D01*
X126117142Y-116892857D01*
X126045714Y-116821428D01*
X125902857Y-116750000D01*
X125617142Y-116750000D01*
X125474285Y-116821428D01*
X125402857Y-116892857D01*
X125331428Y-117035714D01*
X132850000Y-116178571D02*
X133778571Y-116178571D01*
X133278571Y-116750000D01*
X133492857Y-116750000D01*
X133635714Y-116821428D01*
X133707142Y-116892857D01*
X133778571Y-117035714D01*
X133778571Y-117392857D01*
X133707142Y-117535714D01*
X133635714Y-117607142D01*
X133492857Y-117678571D01*
X133064285Y-117678571D01*
X132921428Y-117607142D01*
X132850000Y-117535714D01*
X135411428Y-116321428D02*
X135482857Y-116250000D01*
X135625714Y-116178571D01*
X135982857Y-116178571D01*
X136125714Y-116250000D01*
X136197142Y-116321428D01*
X136268571Y-116464285D01*
X136268571Y-116607142D01*
X136197142Y-116821428D01*
X135340000Y-117678571D01*
X136268571Y-117678571D01*
X140498571Y-116667142D02*
X141641428Y-116667142D01*
X112398571Y-116507142D02*
X113541428Y-116507142D01*
X112970000Y-117078571D02*
X112970000Y-115935714D01*
X114808571Y-116507142D02*
X115951428Y-116507142D01*
D11*
G04 #@! TO.C,U1*
X110220001Y-121310001D02*
X143240001Y-121310001D01*
X143240001Y-121310001D02*
X143240001Y-70510001D01*
X143240001Y-70510001D02*
X110220001Y-70510001D01*
X110220001Y-70510001D02*
X110220001Y-121310001D01*
X138160001Y-77114001D02*
X138160001Y-94640001D01*
X138160001Y-94640001D02*
X115300001Y-94640001D01*
X115300001Y-94640001D02*
X115300001Y-76860001D01*
X115300001Y-76860001D02*
X138160001Y-76860001D01*
X138160001Y-76860001D02*
X138160001Y-77876001D01*
D12*
G04 #@! TO.C,ExtIn1*
X135080000Y-78490000D02*
X136410000Y-78490000D01*
X135080000Y-79820000D02*
X135080000Y-78490000D01*
X135080000Y-81090000D02*
X137740000Y-81090000D01*
X137740000Y-81090000D02*
X137740000Y-101470000D01*
X135080000Y-81090000D02*
X135080000Y-101470000D01*
X135080000Y-101470000D02*
X137740000Y-101470000D01*
G04 #@! TO.C,ExtOut1*
X115490000Y-101470000D02*
X118150000Y-101470000D01*
X115490000Y-81090000D02*
X115490000Y-101470000D01*
X118150000Y-81090000D02*
X118150000Y-101470000D01*
X115490000Y-81090000D02*
X118150000Y-81090000D01*
X115490000Y-79820000D02*
X115490000Y-78490000D01*
X115490000Y-78490000D02*
X116820000Y-78490000D01*
G04 #@! TO.C,Output1*
X142250000Y-117610000D02*
X142250000Y-118940000D01*
X140920000Y-117610000D02*
X142250000Y-117610000D01*
X139650000Y-117610000D02*
X139650000Y-120270000D01*
X139650000Y-120270000D02*
X119270000Y-120270000D01*
X139650000Y-117610000D02*
X119270000Y-117610000D01*
X119270000Y-117610000D02*
X119270000Y-120270000D01*
G04 #@! TO.C,Q1*
X119040000Y-110900000D02*
X117580000Y-110900000D01*
X119040000Y-107740000D02*
X116880000Y-107740000D01*
X119040000Y-107740000D02*
X119040000Y-108670000D01*
X119040000Y-110900000D02*
X119040000Y-109970000D01*
G04 #@! TO.C,Q2*
X121540000Y-115970000D02*
X121540000Y-115040000D01*
X121540000Y-112810000D02*
X121540000Y-113740000D01*
X121540000Y-112810000D02*
X119380000Y-112810000D01*
X121540000Y-115970000D02*
X120080000Y-115970000D01*
G04 #@! TO.C,Q3*
X124180000Y-110900000D02*
X122720000Y-110900000D01*
X124180000Y-107740000D02*
X122020000Y-107740000D01*
X124180000Y-107740000D02*
X124180000Y-108670000D01*
X124180000Y-110900000D02*
X124180000Y-109970000D01*
G04 #@! TO.C,Q4*
X126670000Y-115970000D02*
X125210000Y-115970000D01*
X126670000Y-112810000D02*
X124510000Y-112810000D01*
X126670000Y-112810000D02*
X126670000Y-113740000D01*
X126670000Y-115970000D02*
X126670000Y-115040000D01*
G04 #@! TO.C,Q5*
X129020000Y-110900000D02*
X129020000Y-109970000D01*
X129020000Y-107740000D02*
X129020000Y-108670000D01*
X129020000Y-107740000D02*
X126860000Y-107740000D01*
X129020000Y-110900000D02*
X127560000Y-110900000D01*
G04 #@! TO.C,Q6*
X131840000Y-115970000D02*
X131840000Y-115040000D01*
X131840000Y-112810000D02*
X131840000Y-113740000D01*
X131840000Y-112810000D02*
X129680000Y-112810000D01*
X131840000Y-115970000D02*
X130380000Y-115970000D01*
G04 #@! TO.C,Q7*
X133900000Y-110900000D02*
X132440000Y-110900000D01*
X133900000Y-107740000D02*
X131740000Y-107740000D01*
X133900000Y-107740000D02*
X133900000Y-108670000D01*
X133900000Y-110900000D02*
X133900000Y-109970000D01*
G04 #@! TO.C,Q8*
X136670000Y-115970000D02*
X136670000Y-115040000D01*
X136670000Y-112810000D02*
X136670000Y-113740000D01*
X136670000Y-112810000D02*
X134510000Y-112810000D01*
X136670000Y-115970000D02*
X135210000Y-115970000D01*
G04 #@! TO.C,J1*
X111550000Y-120270000D02*
X111550000Y-118940000D01*
X112880000Y-120270000D02*
X111550000Y-120270000D01*
X114150000Y-120270000D02*
X114150000Y-117610000D01*
X114150000Y-117610000D02*
X116750000Y-117610000D01*
X114150000Y-120270000D02*
X116750000Y-120270000D01*
X116750000Y-120270000D02*
X116750000Y-117610000D01*
G04 #@! TD*
M02*
