G04 #@! TF.GenerationSoftware,KiCad,Pcbnew,(5.0.0)*
G04 #@! TF.CreationDate,2019-08-02T15:13:00-07:00*
G04 #@! TF.ProjectId,Sequence Controller,53657175656E636520436F6E74726F6C,rev?*
G04 #@! TF.SameCoordinates,Original*
G04 #@! TF.FileFunction,Legend,Bot*
G04 #@! TF.FilePolarity,Positive*
%FSLAX46Y46*%
G04 Gerber Fmt 4.6, Leading zero omitted, Abs format (unit mm)*
G04 Created by KiCad (PCBNEW (5.0.0)) date 08/02/19 15:13:00*
%MOMM*%
%LPD*%
G01*
G04 APERTURE LIST*
%ADD10C,0.300000*%
%ADD11C,0.250000*%
G04 APERTURE END LIST*
D10*
X136724285Y-110803571D02*
X135795714Y-110803571D01*
X136295714Y-111375000D01*
X136081428Y-111375000D01*
X135938571Y-111446428D01*
X135867142Y-111517857D01*
X135795714Y-111660714D01*
X135795714Y-112017857D01*
X135867142Y-112160714D01*
X135938571Y-112232142D01*
X136081428Y-112303571D01*
X136510000Y-112303571D01*
X136652857Y-112232142D01*
X136724285Y-112160714D01*
X133367142Y-112303571D02*
X133367142Y-111517857D01*
X133438571Y-111375000D01*
X133581428Y-111303571D01*
X133867142Y-111303571D01*
X134010000Y-111375000D01*
X133367142Y-112232142D02*
X133510000Y-112303571D01*
X133867142Y-112303571D01*
X134010000Y-112232142D01*
X134081428Y-112089285D01*
X134081428Y-111946428D01*
X134010000Y-111803571D01*
X133867142Y-111732142D01*
X133510000Y-111732142D01*
X133367142Y-111660714D01*
X132652857Y-112303571D02*
X132652857Y-111303571D01*
X132652857Y-111446428D02*
X132581428Y-111375000D01*
X132438571Y-111303571D01*
X132224285Y-111303571D01*
X132081428Y-111375000D01*
X132010000Y-111517857D01*
X132010000Y-112303571D01*
X132010000Y-111517857D02*
X131938571Y-111375000D01*
X131795714Y-111303571D01*
X131581428Y-111303571D01*
X131438571Y-111375000D01*
X131367142Y-111517857D01*
X131367142Y-112303571D01*
X130652857Y-111303571D02*
X130652857Y-112803571D01*
X130652857Y-111375000D02*
X130510000Y-111303571D01*
X130224285Y-111303571D01*
X130081428Y-111375000D01*
X130010000Y-111446428D01*
X129938571Y-111589285D01*
X129938571Y-112017857D01*
X130010000Y-112160714D01*
X130081428Y-112232142D01*
X130224285Y-112303571D01*
X130510000Y-112303571D01*
X130652857Y-112232142D01*
X129367142Y-112232142D02*
X129224285Y-112303571D01*
X128938571Y-112303571D01*
X128795714Y-112232142D01*
X128724285Y-112089285D01*
X128724285Y-112017857D01*
X128795714Y-111875000D01*
X128938571Y-111803571D01*
X129152857Y-111803571D01*
X129295714Y-111732142D01*
X129367142Y-111589285D01*
X129367142Y-111517857D01*
X129295714Y-111375000D01*
X129152857Y-111303571D01*
X128938571Y-111303571D01*
X128795714Y-111375000D01*
X126938571Y-111303571D02*
X126938571Y-112803571D01*
X126938571Y-111375000D02*
X126795714Y-111303571D01*
X126510000Y-111303571D01*
X126367142Y-111375000D01*
X126295714Y-111446428D01*
X126224285Y-111589285D01*
X126224285Y-112017857D01*
X126295714Y-112160714D01*
X126367142Y-112232142D01*
X126510000Y-112303571D01*
X126795714Y-112303571D01*
X126938571Y-112232142D01*
X125010000Y-112232142D02*
X125152857Y-112303571D01*
X125438571Y-112303571D01*
X125581428Y-112232142D01*
X125652857Y-112089285D01*
X125652857Y-111517857D01*
X125581428Y-111375000D01*
X125438571Y-111303571D01*
X125152857Y-111303571D01*
X125010000Y-111375000D01*
X124938571Y-111517857D01*
X124938571Y-111660714D01*
X125652857Y-111803571D01*
X124295714Y-112303571D02*
X124295714Y-111303571D01*
X124295714Y-111589285D02*
X124224285Y-111446428D01*
X124152857Y-111375000D01*
X124010000Y-111303571D01*
X123867142Y-111303571D01*
X136010000Y-114782142D02*
X136152857Y-114853571D01*
X136438571Y-114853571D01*
X136581428Y-114782142D01*
X136652857Y-114710714D01*
X136724285Y-114567857D01*
X136724285Y-114139285D01*
X136652857Y-113996428D01*
X136581428Y-113925000D01*
X136438571Y-113853571D01*
X136152857Y-113853571D01*
X136010000Y-113925000D01*
X135367142Y-114853571D02*
X135367142Y-113353571D01*
X134724285Y-114853571D02*
X134724285Y-114067857D01*
X134795714Y-113925000D01*
X134938571Y-113853571D01*
X135152857Y-113853571D01*
X135295714Y-113925000D01*
X135367142Y-113996428D01*
X133367142Y-114853571D02*
X133367142Y-114067857D01*
X133438571Y-113925000D01*
X133581428Y-113853571D01*
X133867142Y-113853571D01*
X134010000Y-113925000D01*
X133367142Y-114782142D02*
X133510000Y-114853571D01*
X133867142Y-114853571D01*
X134010000Y-114782142D01*
X134081428Y-114639285D01*
X134081428Y-114496428D01*
X134010000Y-114353571D01*
X133867142Y-114282142D01*
X133510000Y-114282142D01*
X133367142Y-114210714D01*
X132652857Y-113853571D02*
X132652857Y-114853571D01*
X132652857Y-113996428D02*
X132581428Y-113925000D01*
X132438571Y-113853571D01*
X132224285Y-113853571D01*
X132081428Y-113925000D01*
X132010000Y-114067857D01*
X132010000Y-114853571D01*
X131295714Y-113853571D02*
X131295714Y-114853571D01*
X131295714Y-113996428D02*
X131224285Y-113925000D01*
X131081428Y-113853571D01*
X130867142Y-113853571D01*
X130724285Y-113925000D01*
X130652857Y-114067857D01*
X130652857Y-114853571D01*
X129367142Y-114782142D02*
X129510000Y-114853571D01*
X129795714Y-114853571D01*
X129938571Y-114782142D01*
X130010000Y-114639285D01*
X130010000Y-114067857D01*
X129938571Y-113925000D01*
X129795714Y-113853571D01*
X129510000Y-113853571D01*
X129367142Y-113925000D01*
X129295714Y-114067857D01*
X129295714Y-114210714D01*
X130010000Y-114353571D01*
X128438571Y-114853571D02*
X128581428Y-114782142D01*
X128652857Y-114639285D01*
X128652857Y-113353571D01*
X126724285Y-114853571D02*
X126724285Y-113853571D01*
X126724285Y-113996428D02*
X126652857Y-113925000D01*
X126510000Y-113853571D01*
X126295714Y-113853571D01*
X126152857Y-113925000D01*
X126081428Y-114067857D01*
X126081428Y-114853571D01*
X126081428Y-114067857D02*
X126010000Y-113925000D01*
X125867142Y-113853571D01*
X125652857Y-113853571D01*
X125510000Y-113925000D01*
X125438571Y-114067857D01*
X125438571Y-114853571D01*
X124081428Y-114853571D02*
X124081428Y-114067857D01*
X124152857Y-113925000D01*
X124295714Y-113853571D01*
X124581428Y-113853571D01*
X124724285Y-113925000D01*
X124081428Y-114782142D02*
X124224285Y-114853571D01*
X124581428Y-114853571D01*
X124724285Y-114782142D01*
X124795714Y-114639285D01*
X124795714Y-114496428D01*
X124724285Y-114353571D01*
X124581428Y-114282142D01*
X124224285Y-114282142D01*
X124081428Y-114210714D01*
X123510000Y-114853571D02*
X122724285Y-113853571D01*
X123510000Y-113853571D02*
X122724285Y-114853571D01*
D11*
X133152619Y-99187142D02*
X134152619Y-99187142D01*
X134152619Y-98806190D01*
X134105000Y-98710952D01*
X134057380Y-98663333D01*
X133962142Y-98615714D01*
X133819285Y-98615714D01*
X133724047Y-98663333D01*
X133676428Y-98710952D01*
X133628809Y-98806190D01*
X133628809Y-99187142D01*
X133152619Y-98044285D02*
X133200238Y-98139523D01*
X133247857Y-98187142D01*
X133343095Y-98234761D01*
X133628809Y-98234761D01*
X133724047Y-98187142D01*
X133771666Y-98139523D01*
X133819285Y-98044285D01*
X133819285Y-97901428D01*
X133771666Y-97806190D01*
X133724047Y-97758571D01*
X133628809Y-97710952D01*
X133343095Y-97710952D01*
X133247857Y-97758571D01*
X133200238Y-97806190D01*
X133152619Y-97901428D01*
X133152619Y-98044285D01*
X133819285Y-97282380D02*
X132819285Y-97282380D01*
X133771666Y-97282380D02*
X133819285Y-97187142D01*
X133819285Y-96996666D01*
X133771666Y-96901428D01*
X133724047Y-96853809D01*
X133628809Y-96806190D01*
X133343095Y-96806190D01*
X133247857Y-96853809D01*
X133200238Y-96901428D01*
X133152619Y-96996666D01*
X133152619Y-97187142D01*
X133200238Y-97282380D01*
X133819285Y-95949047D02*
X133152619Y-95949047D01*
X133819285Y-96377619D02*
X133295476Y-96377619D01*
X133200238Y-96330000D01*
X133152619Y-96234761D01*
X133152619Y-96091904D01*
X133200238Y-95996666D01*
X133247857Y-95949047D01*
X133152619Y-95330000D02*
X133200238Y-95425238D01*
X133295476Y-95472857D01*
X134152619Y-95472857D01*
X133152619Y-94520476D02*
X133676428Y-94520476D01*
X133771666Y-94568095D01*
X133819285Y-94663333D01*
X133819285Y-94853809D01*
X133771666Y-94949047D01*
X133200238Y-94520476D02*
X133152619Y-94615714D01*
X133152619Y-94853809D01*
X133200238Y-94949047D01*
X133295476Y-94996666D01*
X133390714Y-94996666D01*
X133485952Y-94949047D01*
X133533571Y-94853809D01*
X133533571Y-94615714D01*
X133581190Y-94520476D01*
X133819285Y-94187142D02*
X133819285Y-93806190D01*
X134152619Y-94044285D02*
X133295476Y-94044285D01*
X133200238Y-93996666D01*
X133152619Y-93901428D01*
X133152619Y-93806190D01*
X133200238Y-93091904D02*
X133152619Y-93187142D01*
X133152619Y-93377619D01*
X133200238Y-93472857D01*
X133295476Y-93520476D01*
X133676428Y-93520476D01*
X133771666Y-93472857D01*
X133819285Y-93377619D01*
X133819285Y-93187142D01*
X133771666Y-93091904D01*
X133676428Y-93044285D01*
X133581190Y-93044285D01*
X133485952Y-93520476D01*
X133819285Y-91996666D02*
X133819285Y-91615714D01*
X133152619Y-91853809D02*
X134009761Y-91853809D01*
X134105000Y-91806190D01*
X134152619Y-91710952D01*
X134152619Y-91615714D01*
X133200238Y-90901428D02*
X133152619Y-90996666D01*
X133152619Y-91187142D01*
X133200238Y-91282380D01*
X133295476Y-91330000D01*
X133676428Y-91330000D01*
X133771666Y-91282380D01*
X133819285Y-91187142D01*
X133819285Y-90996666D01*
X133771666Y-90901428D01*
X133676428Y-90853809D01*
X133581190Y-90853809D01*
X133485952Y-91330000D01*
X133152619Y-90425238D02*
X133819285Y-90425238D01*
X133724047Y-90425238D02*
X133771666Y-90377619D01*
X133819285Y-90282380D01*
X133819285Y-90139523D01*
X133771666Y-90044285D01*
X133676428Y-89996666D01*
X133152619Y-89996666D01*
X133676428Y-89996666D02*
X133771666Y-89949047D01*
X133819285Y-89853809D01*
X133819285Y-89710952D01*
X133771666Y-89615714D01*
X133676428Y-89568095D01*
X133152619Y-89568095D01*
X133152619Y-88663333D02*
X133676428Y-88663333D01*
X133771666Y-88710952D01*
X133819285Y-88806190D01*
X133819285Y-88996666D01*
X133771666Y-89091904D01*
X133200238Y-88663333D02*
X133152619Y-88758571D01*
X133152619Y-88996666D01*
X133200238Y-89091904D01*
X133295476Y-89139523D01*
X133390714Y-89139523D01*
X133485952Y-89091904D01*
X133533571Y-88996666D01*
X133533571Y-88758571D01*
X133581190Y-88663333D01*
X133152619Y-88044285D02*
X133200238Y-88139523D01*
X133295476Y-88187142D01*
X134152619Y-88187142D01*
X133200238Y-87282380D02*
X133152619Y-87377619D01*
X133152619Y-87568095D01*
X133200238Y-87663333D01*
X133295476Y-87710952D01*
X133676428Y-87710952D01*
X133771666Y-87663333D01*
X133819285Y-87568095D01*
X133819285Y-87377619D01*
X133771666Y-87282380D01*
X133676428Y-87234761D01*
X133581190Y-87234761D01*
X133485952Y-87710952D01*
X133152619Y-86044285D02*
X134152619Y-86044285D01*
X133152619Y-85615714D02*
X133676428Y-85615714D01*
X133771666Y-85663333D01*
X133819285Y-85758571D01*
X133819285Y-85901428D01*
X133771666Y-85996666D01*
X133724047Y-86044285D01*
X133200238Y-84758571D02*
X133152619Y-84853809D01*
X133152619Y-85044285D01*
X133200238Y-85139523D01*
X133295476Y-85187142D01*
X133676428Y-85187142D01*
X133771666Y-85139523D01*
X133819285Y-85044285D01*
X133819285Y-84853809D01*
X133771666Y-84758571D01*
X133676428Y-84710952D01*
X133581190Y-84710952D01*
X133485952Y-85187142D01*
X133152619Y-83853809D02*
X133676428Y-83853809D01*
X133771666Y-83901428D01*
X133819285Y-83996666D01*
X133819285Y-84187142D01*
X133771666Y-84282380D01*
X133200238Y-83853809D02*
X133152619Y-83949047D01*
X133152619Y-84187142D01*
X133200238Y-84282380D01*
X133295476Y-84330000D01*
X133390714Y-84330000D01*
X133485952Y-84282380D01*
X133533571Y-84187142D01*
X133533571Y-83949047D01*
X133581190Y-83853809D01*
X133152619Y-82949047D02*
X134152619Y-82949047D01*
X133200238Y-82949047D02*
X133152619Y-83044285D01*
X133152619Y-83234761D01*
X133200238Y-83330000D01*
X133247857Y-83377619D01*
X133343095Y-83425238D01*
X133628809Y-83425238D01*
X133724047Y-83377619D01*
X133771666Y-83330000D01*
X133819285Y-83234761D01*
X133819285Y-83044285D01*
X133771666Y-82949047D01*
X133200238Y-82091904D02*
X133152619Y-82187142D01*
X133152619Y-82377619D01*
X133200238Y-82472857D01*
X133295476Y-82520476D01*
X133676428Y-82520476D01*
X133771666Y-82472857D01*
X133819285Y-82377619D01*
X133819285Y-82187142D01*
X133771666Y-82091904D01*
X133676428Y-82044285D01*
X133581190Y-82044285D01*
X133485952Y-82520476D01*
X133152619Y-81615714D02*
X133819285Y-81615714D01*
X133628809Y-81615714D02*
X133724047Y-81568095D01*
X133771666Y-81520476D01*
X133819285Y-81425238D01*
X133819285Y-81330000D01*
X131402619Y-97282380D02*
X131450238Y-97377619D01*
X131497857Y-97425238D01*
X131593095Y-97472857D01*
X131878809Y-97472857D01*
X131974047Y-97425238D01*
X132021666Y-97377619D01*
X132069285Y-97282380D01*
X132069285Y-97139523D01*
X132021666Y-97044285D01*
X131974047Y-96996666D01*
X131878809Y-96949047D01*
X131593095Y-96949047D01*
X131497857Y-96996666D01*
X131450238Y-97044285D01*
X131402619Y-97139523D01*
X131402619Y-97282380D01*
X132069285Y-96520476D02*
X131402619Y-96520476D01*
X131974047Y-96520476D02*
X132021666Y-96472857D01*
X132069285Y-96377619D01*
X132069285Y-96234761D01*
X132021666Y-96139523D01*
X131926428Y-96091904D01*
X131402619Y-96091904D01*
X131450238Y-94472857D02*
X131402619Y-94568095D01*
X131402619Y-94758571D01*
X131450238Y-94853809D01*
X131545476Y-94901428D01*
X131926428Y-94901428D01*
X132021666Y-94853809D01*
X132069285Y-94758571D01*
X132069285Y-94568095D01*
X132021666Y-94472857D01*
X131926428Y-94425238D01*
X131831190Y-94425238D01*
X131735952Y-94901428D01*
X131402619Y-94091904D02*
X132069285Y-93568095D01*
X132069285Y-94091904D02*
X131402619Y-93568095D01*
X132069285Y-93330000D02*
X132069285Y-92949047D01*
X132402619Y-93187142D02*
X131545476Y-93187142D01*
X131450238Y-93139523D01*
X131402619Y-93044285D01*
X131402619Y-92949047D01*
X131450238Y-92234761D02*
X131402619Y-92330000D01*
X131402619Y-92520476D01*
X131450238Y-92615714D01*
X131545476Y-92663333D01*
X131926428Y-92663333D01*
X132021666Y-92615714D01*
X132069285Y-92520476D01*
X132069285Y-92330000D01*
X132021666Y-92234761D01*
X131926428Y-92187142D01*
X131831190Y-92187142D01*
X131735952Y-92663333D01*
X132069285Y-91758571D02*
X131402619Y-91758571D01*
X131974047Y-91758571D02*
X132021666Y-91710952D01*
X132069285Y-91615714D01*
X132069285Y-91472857D01*
X132021666Y-91377619D01*
X131926428Y-91330000D01*
X131402619Y-91330000D01*
X131450238Y-90901428D02*
X131402619Y-90806190D01*
X131402619Y-90615714D01*
X131450238Y-90520476D01*
X131545476Y-90472857D01*
X131593095Y-90472857D01*
X131688333Y-90520476D01*
X131735952Y-90615714D01*
X131735952Y-90758571D01*
X131783571Y-90853809D01*
X131878809Y-90901428D01*
X131926428Y-90901428D01*
X132021666Y-90853809D01*
X132069285Y-90758571D01*
X132069285Y-90615714D01*
X132021666Y-90520476D01*
X131402619Y-90044285D02*
X132069285Y-90044285D01*
X132402619Y-90044285D02*
X132355000Y-90091904D01*
X132307380Y-90044285D01*
X132355000Y-89996666D01*
X132402619Y-90044285D01*
X132307380Y-90044285D01*
X131402619Y-89425238D02*
X131450238Y-89520476D01*
X131497857Y-89568095D01*
X131593095Y-89615714D01*
X131878809Y-89615714D01*
X131974047Y-89568095D01*
X132021666Y-89520476D01*
X132069285Y-89425238D01*
X132069285Y-89282380D01*
X132021666Y-89187142D01*
X131974047Y-89139523D01*
X131878809Y-89091904D01*
X131593095Y-89091904D01*
X131497857Y-89139523D01*
X131450238Y-89187142D01*
X131402619Y-89282380D01*
X131402619Y-89425238D01*
X132069285Y-88663333D02*
X131402619Y-88663333D01*
X131974047Y-88663333D02*
X132021666Y-88615714D01*
X132069285Y-88520476D01*
X132069285Y-88377619D01*
X132021666Y-88282380D01*
X131926428Y-88234761D01*
X131402619Y-88234761D01*
X131402619Y-86996666D02*
X132402619Y-86996666D01*
X132021666Y-86996666D02*
X132069285Y-86901428D01*
X132069285Y-86710952D01*
X132021666Y-86615714D01*
X131974047Y-86568095D01*
X131878809Y-86520476D01*
X131593095Y-86520476D01*
X131497857Y-86568095D01*
X131450238Y-86615714D01*
X131402619Y-86710952D01*
X131402619Y-86901428D01*
X131450238Y-86996666D01*
X131402619Y-85949047D02*
X131450238Y-86044285D01*
X131497857Y-86091904D01*
X131593095Y-86139523D01*
X131878809Y-86139523D01*
X131974047Y-86091904D01*
X132021666Y-86044285D01*
X132069285Y-85949047D01*
X132069285Y-85806190D01*
X132021666Y-85710952D01*
X131974047Y-85663333D01*
X131878809Y-85615714D01*
X131593095Y-85615714D01*
X131497857Y-85663333D01*
X131450238Y-85710952D01*
X131402619Y-85806190D01*
X131402619Y-85949047D01*
X131402619Y-84758571D02*
X131926428Y-84758571D01*
X132021666Y-84806190D01*
X132069285Y-84901428D01*
X132069285Y-85091904D01*
X132021666Y-85187142D01*
X131450238Y-84758571D02*
X131402619Y-84853809D01*
X131402619Y-85091904D01*
X131450238Y-85187142D01*
X131545476Y-85234761D01*
X131640714Y-85234761D01*
X131735952Y-85187142D01*
X131783571Y-85091904D01*
X131783571Y-84853809D01*
X131831190Y-84758571D01*
X131402619Y-84282380D02*
X132069285Y-84282380D01*
X131878809Y-84282380D02*
X131974047Y-84234761D01*
X132021666Y-84187142D01*
X132069285Y-84091904D01*
X132069285Y-83996666D01*
X131402619Y-83234761D02*
X132402619Y-83234761D01*
X131450238Y-83234761D02*
X131402619Y-83330000D01*
X131402619Y-83520476D01*
X131450238Y-83615714D01*
X131497857Y-83663333D01*
X131593095Y-83710952D01*
X131878809Y-83710952D01*
X131974047Y-83663333D01*
X132021666Y-83615714D01*
X132069285Y-83520476D01*
X132069285Y-83330000D01*
X132021666Y-83234761D01*
X120057380Y-82016190D02*
X119057380Y-82016190D01*
X119057380Y-82397142D01*
X119105000Y-82492380D01*
X119152619Y-82540000D01*
X119247857Y-82587619D01*
X119390714Y-82587619D01*
X119485952Y-82540000D01*
X119533571Y-82492380D01*
X119581190Y-82397142D01*
X119581190Y-82016190D01*
X120057380Y-83159047D02*
X120009761Y-83063809D01*
X119962142Y-83016190D01*
X119866904Y-82968571D01*
X119581190Y-82968571D01*
X119485952Y-83016190D01*
X119438333Y-83063809D01*
X119390714Y-83159047D01*
X119390714Y-83301904D01*
X119438333Y-83397142D01*
X119485952Y-83444761D01*
X119581190Y-83492380D01*
X119866904Y-83492380D01*
X119962142Y-83444761D01*
X120009761Y-83397142D01*
X120057380Y-83301904D01*
X120057380Y-83159047D01*
X119390714Y-83920952D02*
X120390714Y-83920952D01*
X119438333Y-83920952D02*
X119390714Y-84016190D01*
X119390714Y-84206666D01*
X119438333Y-84301904D01*
X119485952Y-84349523D01*
X119581190Y-84397142D01*
X119866904Y-84397142D01*
X119962142Y-84349523D01*
X120009761Y-84301904D01*
X120057380Y-84206666D01*
X120057380Y-84016190D01*
X120009761Y-83920952D01*
X119390714Y-85254285D02*
X120057380Y-85254285D01*
X119390714Y-84825714D02*
X119914523Y-84825714D01*
X120009761Y-84873333D01*
X120057380Y-84968571D01*
X120057380Y-85111428D01*
X120009761Y-85206666D01*
X119962142Y-85254285D01*
X120057380Y-85873333D02*
X120009761Y-85778095D01*
X119914523Y-85730476D01*
X119057380Y-85730476D01*
X120057380Y-86682857D02*
X119533571Y-86682857D01*
X119438333Y-86635238D01*
X119390714Y-86540000D01*
X119390714Y-86349523D01*
X119438333Y-86254285D01*
X120009761Y-86682857D02*
X120057380Y-86587619D01*
X120057380Y-86349523D01*
X120009761Y-86254285D01*
X119914523Y-86206666D01*
X119819285Y-86206666D01*
X119724047Y-86254285D01*
X119676428Y-86349523D01*
X119676428Y-86587619D01*
X119628809Y-86682857D01*
X119390714Y-87016190D02*
X119390714Y-87397142D01*
X119057380Y-87159047D02*
X119914523Y-87159047D01*
X120009761Y-87206666D01*
X120057380Y-87301904D01*
X120057380Y-87397142D01*
X120009761Y-88111428D02*
X120057380Y-88016190D01*
X120057380Y-87825714D01*
X120009761Y-87730476D01*
X119914523Y-87682857D01*
X119533571Y-87682857D01*
X119438333Y-87730476D01*
X119390714Y-87825714D01*
X119390714Y-88016190D01*
X119438333Y-88111428D01*
X119533571Y-88159047D01*
X119628809Y-88159047D01*
X119724047Y-87682857D01*
X120057380Y-89349523D02*
X119390714Y-89349523D01*
X119485952Y-89349523D02*
X119438333Y-89397142D01*
X119390714Y-89492380D01*
X119390714Y-89635238D01*
X119438333Y-89730476D01*
X119533571Y-89778095D01*
X120057380Y-89778095D01*
X119533571Y-89778095D02*
X119438333Y-89825714D01*
X119390714Y-89920952D01*
X119390714Y-90063809D01*
X119438333Y-90159047D01*
X119533571Y-90206666D01*
X120057380Y-90206666D01*
X120057380Y-91111428D02*
X119533571Y-91111428D01*
X119438333Y-91063809D01*
X119390714Y-90968571D01*
X119390714Y-90778095D01*
X119438333Y-90682857D01*
X120009761Y-91111428D02*
X120057380Y-91016190D01*
X120057380Y-90778095D01*
X120009761Y-90682857D01*
X119914523Y-90635238D01*
X119819285Y-90635238D01*
X119724047Y-90682857D01*
X119676428Y-90778095D01*
X119676428Y-91016190D01*
X119628809Y-91111428D01*
X120057380Y-91730476D02*
X120009761Y-91635238D01*
X119914523Y-91587619D01*
X119057380Y-91587619D01*
X120009761Y-92492380D02*
X120057380Y-92397142D01*
X120057380Y-92206666D01*
X120009761Y-92111428D01*
X119914523Y-92063809D01*
X119533571Y-92063809D01*
X119438333Y-92111428D01*
X119390714Y-92206666D01*
X119390714Y-92397142D01*
X119438333Y-92492380D01*
X119533571Y-92540000D01*
X119628809Y-92540000D01*
X119724047Y-92063809D01*
X120057380Y-93730476D02*
X119057380Y-93730476D01*
X120057380Y-94159047D02*
X119533571Y-94159047D01*
X119438333Y-94111428D01*
X119390714Y-94016190D01*
X119390714Y-93873333D01*
X119438333Y-93778095D01*
X119485952Y-93730476D01*
X120009761Y-95016190D02*
X120057380Y-94920952D01*
X120057380Y-94730476D01*
X120009761Y-94635238D01*
X119914523Y-94587619D01*
X119533571Y-94587619D01*
X119438333Y-94635238D01*
X119390714Y-94730476D01*
X119390714Y-94920952D01*
X119438333Y-95016190D01*
X119533571Y-95063809D01*
X119628809Y-95063809D01*
X119724047Y-94587619D01*
X120057380Y-95920952D02*
X119533571Y-95920952D01*
X119438333Y-95873333D01*
X119390714Y-95778095D01*
X119390714Y-95587619D01*
X119438333Y-95492380D01*
X120009761Y-95920952D02*
X120057380Y-95825714D01*
X120057380Y-95587619D01*
X120009761Y-95492380D01*
X119914523Y-95444761D01*
X119819285Y-95444761D01*
X119724047Y-95492380D01*
X119676428Y-95587619D01*
X119676428Y-95825714D01*
X119628809Y-95920952D01*
X120057380Y-96825714D02*
X119057380Y-96825714D01*
X120009761Y-96825714D02*
X120057380Y-96730476D01*
X120057380Y-96540000D01*
X120009761Y-96444761D01*
X119962142Y-96397142D01*
X119866904Y-96349523D01*
X119581190Y-96349523D01*
X119485952Y-96397142D01*
X119438333Y-96444761D01*
X119390714Y-96540000D01*
X119390714Y-96730476D01*
X119438333Y-96825714D01*
X120009761Y-97682857D02*
X120057380Y-97587619D01*
X120057380Y-97397142D01*
X120009761Y-97301904D01*
X119914523Y-97254285D01*
X119533571Y-97254285D01*
X119438333Y-97301904D01*
X119390714Y-97397142D01*
X119390714Y-97587619D01*
X119438333Y-97682857D01*
X119533571Y-97730476D01*
X119628809Y-97730476D01*
X119724047Y-97254285D01*
X120057380Y-98159047D02*
X119390714Y-98159047D01*
X119581190Y-98159047D02*
X119485952Y-98206666D01*
X119438333Y-98254285D01*
X119390714Y-98349523D01*
X119390714Y-98444761D01*
X121807380Y-85325714D02*
X121759761Y-85230476D01*
X121712142Y-85182857D01*
X121616904Y-85135238D01*
X121331190Y-85135238D01*
X121235952Y-85182857D01*
X121188333Y-85230476D01*
X121140714Y-85325714D01*
X121140714Y-85468571D01*
X121188333Y-85563809D01*
X121235952Y-85611428D01*
X121331190Y-85659047D01*
X121616904Y-85659047D01*
X121712142Y-85611428D01*
X121759761Y-85563809D01*
X121807380Y-85468571D01*
X121807380Y-85325714D01*
X121140714Y-86087619D02*
X121807380Y-86087619D01*
X121235952Y-86087619D02*
X121188333Y-86135238D01*
X121140714Y-86230476D01*
X121140714Y-86373333D01*
X121188333Y-86468571D01*
X121283571Y-86516190D01*
X121807380Y-86516190D01*
X121807380Y-87754285D02*
X121140714Y-87754285D01*
X121235952Y-87754285D02*
X121188333Y-87801904D01*
X121140714Y-87897142D01*
X121140714Y-88040000D01*
X121188333Y-88135238D01*
X121283571Y-88182857D01*
X121807380Y-88182857D01*
X121283571Y-88182857D02*
X121188333Y-88230476D01*
X121140714Y-88325714D01*
X121140714Y-88468571D01*
X121188333Y-88563809D01*
X121283571Y-88611428D01*
X121807380Y-88611428D01*
X121807380Y-89516190D02*
X121283571Y-89516190D01*
X121188333Y-89468571D01*
X121140714Y-89373333D01*
X121140714Y-89182857D01*
X121188333Y-89087619D01*
X121759761Y-89516190D02*
X121807380Y-89420952D01*
X121807380Y-89182857D01*
X121759761Y-89087619D01*
X121664523Y-89040000D01*
X121569285Y-89040000D01*
X121474047Y-89087619D01*
X121426428Y-89182857D01*
X121426428Y-89420952D01*
X121378809Y-89516190D01*
X121807380Y-89992380D02*
X121140714Y-89992380D01*
X120807380Y-89992380D02*
X120855000Y-89944761D01*
X120902619Y-89992380D01*
X120855000Y-90040000D01*
X120807380Y-89992380D01*
X120902619Y-89992380D01*
X121140714Y-90468571D02*
X121807380Y-90468571D01*
X121235952Y-90468571D02*
X121188333Y-90516190D01*
X121140714Y-90611428D01*
X121140714Y-90754285D01*
X121188333Y-90849523D01*
X121283571Y-90897142D01*
X121807380Y-90897142D01*
X121807380Y-92135238D02*
X120807380Y-92135238D01*
X121188333Y-92135238D02*
X121140714Y-92230476D01*
X121140714Y-92420952D01*
X121188333Y-92516190D01*
X121235952Y-92563809D01*
X121331190Y-92611428D01*
X121616904Y-92611428D01*
X121712142Y-92563809D01*
X121759761Y-92516190D01*
X121807380Y-92420952D01*
X121807380Y-92230476D01*
X121759761Y-92135238D01*
X121807380Y-93182857D02*
X121759761Y-93087619D01*
X121712142Y-93040000D01*
X121616904Y-92992380D01*
X121331190Y-92992380D01*
X121235952Y-93040000D01*
X121188333Y-93087619D01*
X121140714Y-93182857D01*
X121140714Y-93325714D01*
X121188333Y-93420952D01*
X121235952Y-93468571D01*
X121331190Y-93516190D01*
X121616904Y-93516190D01*
X121712142Y-93468571D01*
X121759761Y-93420952D01*
X121807380Y-93325714D01*
X121807380Y-93182857D01*
X121807380Y-94373333D02*
X121283571Y-94373333D01*
X121188333Y-94325714D01*
X121140714Y-94230476D01*
X121140714Y-94040000D01*
X121188333Y-93944761D01*
X121759761Y-94373333D02*
X121807380Y-94278095D01*
X121807380Y-94040000D01*
X121759761Y-93944761D01*
X121664523Y-93897142D01*
X121569285Y-93897142D01*
X121474047Y-93944761D01*
X121426428Y-94040000D01*
X121426428Y-94278095D01*
X121378809Y-94373333D01*
X121807380Y-94849523D02*
X121140714Y-94849523D01*
X121331190Y-94849523D02*
X121235952Y-94897142D01*
X121188333Y-94944761D01*
X121140714Y-95040000D01*
X121140714Y-95135238D01*
X121807380Y-95897142D02*
X120807380Y-95897142D01*
X121759761Y-95897142D02*
X121807380Y-95801904D01*
X121807380Y-95611428D01*
X121759761Y-95516190D01*
X121712142Y-95468571D01*
X121616904Y-95420952D01*
X121331190Y-95420952D01*
X121235952Y-95468571D01*
X121188333Y-95516190D01*
X121140714Y-95611428D01*
X121140714Y-95801904D01*
X121188333Y-95897142D01*
D10*
X136218571Y-116341428D02*
X136147142Y-116270000D01*
X136004285Y-116198571D01*
X135647142Y-116198571D01*
X135504285Y-116270000D01*
X135432857Y-116341428D01*
X135361428Y-116484285D01*
X135361428Y-116627142D01*
X135432857Y-116841428D01*
X136290000Y-117698571D01*
X135361428Y-117698571D01*
X127782857Y-116198571D02*
X128497142Y-116198571D01*
X128568571Y-116912857D01*
X128497142Y-116841428D01*
X128354285Y-116770000D01*
X127997142Y-116770000D01*
X127854285Y-116841428D01*
X127782857Y-116912857D01*
X127711428Y-117055714D01*
X127711428Y-117412857D01*
X127782857Y-117555714D01*
X127854285Y-117627142D01*
X127997142Y-117698571D01*
X128354285Y-117698571D01*
X128497142Y-117627142D01*
X128568571Y-117555714D01*
X123580000Y-116198571D02*
X122580000Y-116198571D01*
X123222857Y-117698571D01*
X125394285Y-116198571D02*
X125680000Y-116198571D01*
X125822857Y-116270000D01*
X125894285Y-116341428D01*
X126037142Y-116555714D01*
X126108571Y-116841428D01*
X126108571Y-117412857D01*
X126037142Y-117555714D01*
X125965714Y-117627142D01*
X125822857Y-117698571D01*
X125537142Y-117698571D01*
X125394285Y-117627142D01*
X125322857Y-117555714D01*
X125251428Y-117412857D01*
X125251428Y-117055714D01*
X125322857Y-116912857D01*
X125394285Y-116841428D01*
X125537142Y-116770000D01*
X125822857Y-116770000D01*
X125965714Y-116841428D01*
X126037142Y-116912857D01*
X126108571Y-117055714D01*
X130444285Y-116698571D02*
X130444285Y-117698571D01*
X130801428Y-116127142D02*
X131158571Y-117198571D01*
X130230000Y-117198571D01*
X120682857Y-116841428D02*
X120825714Y-116770000D01*
X120897142Y-116698571D01*
X120968571Y-116555714D01*
X120968571Y-116484285D01*
X120897142Y-116341428D01*
X120825714Y-116270000D01*
X120682857Y-116198571D01*
X120397142Y-116198571D01*
X120254285Y-116270000D01*
X120182857Y-116341428D01*
X120111428Y-116484285D01*
X120111428Y-116555714D01*
X120182857Y-116698571D01*
X120254285Y-116770000D01*
X120397142Y-116841428D01*
X120682857Y-116841428D01*
X120825714Y-116912857D01*
X120897142Y-116984285D01*
X120968571Y-117127142D01*
X120968571Y-117412857D01*
X120897142Y-117555714D01*
X120825714Y-117627142D01*
X120682857Y-117698571D01*
X120397142Y-117698571D01*
X120254285Y-117627142D01*
X120182857Y-117555714D01*
X120111428Y-117412857D01*
X120111428Y-117127142D01*
X120182857Y-116984285D01*
X120254285Y-116912857D01*
X120397142Y-116841428D01*
X133770000Y-116198571D02*
X132841428Y-116198571D01*
X133341428Y-116770000D01*
X133127142Y-116770000D01*
X132984285Y-116841428D01*
X132912857Y-116912857D01*
X132841428Y-117055714D01*
X132841428Y-117412857D01*
X132912857Y-117555714D01*
X132984285Y-117627142D01*
X133127142Y-117698571D01*
X133555714Y-117698571D01*
X133698571Y-117627142D01*
X133770000Y-117555714D01*
X137901428Y-117698571D02*
X138758571Y-117698571D01*
X138330000Y-117698571D02*
X138330000Y-116198571D01*
X138472857Y-116412857D01*
X138615714Y-116555714D01*
X138758571Y-116627142D01*
X140528571Y-116667142D02*
X141671428Y-116667142D01*
X112418571Y-116507142D02*
X113561428Y-116507142D01*
X112990000Y-117078571D02*
X112990000Y-115935714D01*
X114858571Y-116537142D02*
X116001428Y-116537142D01*
X135841428Y-72292857D02*
X135341428Y-72292857D01*
X135127142Y-73078571D02*
X135841428Y-73078571D01*
X135841428Y-71578571D01*
X135127142Y-71578571D01*
X133841428Y-73078571D02*
X133841428Y-72292857D01*
X133912857Y-72150000D01*
X134055714Y-72078571D01*
X134341428Y-72078571D01*
X134484285Y-72150000D01*
X133841428Y-73007142D02*
X133984285Y-73078571D01*
X134341428Y-73078571D01*
X134484285Y-73007142D01*
X134555714Y-72864285D01*
X134555714Y-72721428D01*
X134484285Y-72578571D01*
X134341428Y-72507142D01*
X133984285Y-72507142D01*
X133841428Y-72435714D01*
X132484285Y-72078571D02*
X132484285Y-73292857D01*
X132555714Y-73435714D01*
X132627142Y-73507142D01*
X132770000Y-73578571D01*
X132984285Y-73578571D01*
X133127142Y-73507142D01*
X132484285Y-73007142D02*
X132627142Y-73078571D01*
X132912857Y-73078571D01*
X133055714Y-73007142D01*
X133127142Y-72935714D01*
X133198571Y-72792857D01*
X133198571Y-72364285D01*
X133127142Y-72221428D01*
X133055714Y-72150000D01*
X132912857Y-72078571D01*
X132627142Y-72078571D01*
X132484285Y-72150000D01*
X131555714Y-73078571D02*
X131698571Y-73007142D01*
X131770000Y-72864285D01*
X131770000Y-71578571D01*
X130412857Y-73007142D02*
X130555714Y-73078571D01*
X130841428Y-73078571D01*
X130984285Y-73007142D01*
X131055714Y-72864285D01*
X131055714Y-72292857D01*
X130984285Y-72150000D01*
X130841428Y-72078571D01*
X130555714Y-72078571D01*
X130412857Y-72150000D01*
X130341428Y-72292857D01*
X130341428Y-72435714D01*
X131055714Y-72578571D01*
X129698571Y-73078571D02*
X129698571Y-71578571D01*
X129341428Y-71578571D01*
X129127142Y-71650000D01*
X128984285Y-71792857D01*
X128912857Y-71935714D01*
X128841428Y-72221428D01*
X128841428Y-72435714D01*
X128912857Y-72721428D01*
X128984285Y-72864285D01*
X129127142Y-73007142D01*
X129341428Y-73078571D01*
X129698571Y-73078571D01*
X127627142Y-73007142D02*
X127770000Y-73078571D01*
X128055714Y-73078571D01*
X128198571Y-73007142D01*
X128270000Y-72864285D01*
X128270000Y-72292857D01*
X128198571Y-72150000D01*
X128055714Y-72078571D01*
X127770000Y-72078571D01*
X127627142Y-72150000D01*
X127555714Y-72292857D01*
X127555714Y-72435714D01*
X128270000Y-72578571D01*
X126270000Y-73007142D02*
X126412857Y-73078571D01*
X126698571Y-73078571D01*
X126841428Y-73007142D01*
X126912857Y-72935714D01*
X126984285Y-72792857D01*
X126984285Y-72364285D01*
X126912857Y-72221428D01*
X126841428Y-72150000D01*
X126698571Y-72078571D01*
X126412857Y-72078571D01*
X126270000Y-72150000D01*
X125412857Y-73078571D02*
X125555714Y-73007142D01*
X125627142Y-72935714D01*
X125698571Y-72792857D01*
X125698571Y-72364285D01*
X125627142Y-72221428D01*
X125555714Y-72150000D01*
X125412857Y-72078571D01*
X125198571Y-72078571D01*
X125055714Y-72150000D01*
X124984285Y-72221428D01*
X124912857Y-72364285D01*
X124912857Y-72792857D01*
X124984285Y-72935714D01*
X125055714Y-73007142D01*
X125198571Y-73078571D01*
X125412857Y-73078571D01*
X124270000Y-73078571D02*
X124270000Y-72078571D01*
X124270000Y-72364285D02*
X124198571Y-72221428D01*
X124127142Y-72150000D01*
X123984285Y-72078571D01*
X123841428Y-72078571D01*
X122698571Y-73078571D02*
X122698571Y-72292857D01*
X122770000Y-72150000D01*
X122912857Y-72078571D01*
X123198571Y-72078571D01*
X123341428Y-72150000D01*
X122698571Y-73007142D02*
X122841428Y-73078571D01*
X123198571Y-73078571D01*
X123341428Y-73007142D01*
X123412857Y-72864285D01*
X123412857Y-72721428D01*
X123341428Y-72578571D01*
X123198571Y-72507142D01*
X122841428Y-72507142D01*
X122698571Y-72435714D01*
X122198571Y-72078571D02*
X121627142Y-72078571D01*
X121984285Y-71578571D02*
X121984285Y-72864285D01*
X121912857Y-73007142D01*
X121770000Y-73078571D01*
X121627142Y-73078571D01*
X121127142Y-73078571D02*
X121127142Y-72078571D01*
X121127142Y-71578571D02*
X121198571Y-71650000D01*
X121127142Y-71721428D01*
X121055714Y-71650000D01*
X121127142Y-71578571D01*
X121127142Y-71721428D01*
X120198571Y-73078571D02*
X120341428Y-73007142D01*
X120412857Y-72935714D01*
X120484285Y-72792857D01*
X120484285Y-72364285D01*
X120412857Y-72221428D01*
X120341428Y-72150000D01*
X120198571Y-72078571D01*
X119984285Y-72078571D01*
X119841428Y-72150000D01*
X119770000Y-72221428D01*
X119698571Y-72364285D01*
X119698571Y-72792857D01*
X119770000Y-72935714D01*
X119841428Y-73007142D01*
X119984285Y-73078571D01*
X120198571Y-73078571D01*
X119055714Y-72078571D02*
X119055714Y-73078571D01*
X119055714Y-72221428D02*
X118984285Y-72150000D01*
X118841428Y-72078571D01*
X118627142Y-72078571D01*
X118484285Y-72150000D01*
X118412857Y-72292857D01*
X118412857Y-73078571D01*
X117770000Y-73007142D02*
X117627142Y-73078571D01*
X117341428Y-73078571D01*
X117198571Y-73007142D01*
X117127142Y-72864285D01*
X117127142Y-72792857D01*
X117198571Y-72650000D01*
X117341428Y-72578571D01*
X117555714Y-72578571D01*
X117698571Y-72507142D01*
X117770000Y-72364285D01*
X117770000Y-72292857D01*
X117698571Y-72150000D01*
X117555714Y-72078571D01*
X117341428Y-72078571D01*
X117198571Y-72150000D01*
X137698571Y-75557142D02*
X137484285Y-75628571D01*
X137127142Y-75628571D01*
X136984285Y-75557142D01*
X136912857Y-75485714D01*
X136841428Y-75342857D01*
X136841428Y-75200000D01*
X136912857Y-75057142D01*
X136984285Y-74985714D01*
X137127142Y-74914285D01*
X137412857Y-74842857D01*
X137555714Y-74771428D01*
X137627142Y-74700000D01*
X137698571Y-74557142D01*
X137698571Y-74414285D01*
X137627142Y-74271428D01*
X137555714Y-74200000D01*
X137412857Y-74128571D01*
X137055714Y-74128571D01*
X136841428Y-74200000D01*
X135627142Y-75557142D02*
X135770000Y-75628571D01*
X136055714Y-75628571D01*
X136198571Y-75557142D01*
X136270000Y-75414285D01*
X136270000Y-74842857D01*
X136198571Y-74700000D01*
X136055714Y-74628571D01*
X135770000Y-74628571D01*
X135627142Y-74700000D01*
X135555714Y-74842857D01*
X135555714Y-74985714D01*
X136270000Y-75128571D01*
X134270000Y-74628571D02*
X134270000Y-76128571D01*
X134270000Y-75557142D02*
X134412857Y-75628571D01*
X134698571Y-75628571D01*
X134841428Y-75557142D01*
X134912857Y-75485714D01*
X134984285Y-75342857D01*
X134984285Y-74914285D01*
X134912857Y-74771428D01*
X134841428Y-74700000D01*
X134698571Y-74628571D01*
X134412857Y-74628571D01*
X134270000Y-74700000D01*
X132912857Y-74628571D02*
X132912857Y-75628571D01*
X133555714Y-74628571D02*
X133555714Y-75414285D01*
X133484285Y-75557142D01*
X133341428Y-75628571D01*
X133127142Y-75628571D01*
X132984285Y-75557142D01*
X132912857Y-75485714D01*
X131627142Y-75557142D02*
X131769999Y-75628571D01*
X132055714Y-75628571D01*
X132198571Y-75557142D01*
X132269999Y-75414285D01*
X132269999Y-74842857D01*
X132198571Y-74700000D01*
X132055714Y-74628571D01*
X131769999Y-74628571D01*
X131627142Y-74700000D01*
X131555714Y-74842857D01*
X131555714Y-74985714D01*
X132269999Y-75128571D01*
X130912857Y-74628571D02*
X130912857Y-75628571D01*
X130912857Y-74771428D02*
X130841428Y-74700000D01*
X130698571Y-74628571D01*
X130484285Y-74628571D01*
X130341428Y-74700000D01*
X130269999Y-74842857D01*
X130269999Y-75628571D01*
X128912857Y-75557142D02*
X129055714Y-75628571D01*
X129341428Y-75628571D01*
X129484285Y-75557142D01*
X129555714Y-75485714D01*
X129627142Y-75342857D01*
X129627142Y-74914285D01*
X129555714Y-74771428D01*
X129484285Y-74700000D01*
X129341428Y-74628571D01*
X129055714Y-74628571D01*
X128912857Y-74700000D01*
X127698571Y-75557142D02*
X127841428Y-75628571D01*
X128127142Y-75628571D01*
X128270000Y-75557142D01*
X128341428Y-75414285D01*
X128341428Y-74842857D01*
X128270000Y-74700000D01*
X128127142Y-74628571D01*
X127841428Y-74628571D01*
X127698571Y-74700000D01*
X127627142Y-74842857D01*
X127627142Y-74985714D01*
X128341428Y-75128571D01*
X124984285Y-75485714D02*
X125055714Y-75557142D01*
X125270000Y-75628571D01*
X125412857Y-75628571D01*
X125627142Y-75557142D01*
X125770000Y-75414285D01*
X125841428Y-75271428D01*
X125912857Y-74985714D01*
X125912857Y-74771428D01*
X125841428Y-74485714D01*
X125770000Y-74342857D01*
X125627142Y-74200000D01*
X125412857Y-74128571D01*
X125270000Y-74128571D01*
X125055714Y-74200000D01*
X124984285Y-74271428D01*
X124127142Y-75628571D02*
X124270000Y-75557142D01*
X124341428Y-75485714D01*
X124412857Y-75342857D01*
X124412857Y-74914285D01*
X124341428Y-74771428D01*
X124270000Y-74700000D01*
X124127142Y-74628571D01*
X123912857Y-74628571D01*
X123770000Y-74700000D01*
X123698571Y-74771428D01*
X123627142Y-74914285D01*
X123627142Y-75342857D01*
X123698571Y-75485714D01*
X123770000Y-75557142D01*
X123912857Y-75628571D01*
X124127142Y-75628571D01*
X122984285Y-74628571D02*
X122984285Y-75628571D01*
X122984285Y-74771428D02*
X122912857Y-74700000D01*
X122770000Y-74628571D01*
X122555714Y-74628571D01*
X122412857Y-74700000D01*
X122341428Y-74842857D01*
X122341428Y-75628571D01*
X121841428Y-74628571D02*
X121270000Y-74628571D01*
X121627142Y-74128571D02*
X121627142Y-75414285D01*
X121555714Y-75557142D01*
X121412857Y-75628571D01*
X121270000Y-75628571D01*
X120770000Y-75628571D02*
X120770000Y-74628571D01*
X120770000Y-74914285D02*
X120698571Y-74771428D01*
X120627142Y-74700000D01*
X120484285Y-74628571D01*
X120341428Y-74628571D01*
X119627142Y-75628571D02*
X119770000Y-75557142D01*
X119841428Y-75485714D01*
X119912857Y-75342857D01*
X119912857Y-74914285D01*
X119841428Y-74771428D01*
X119770000Y-74700000D01*
X119627142Y-74628571D01*
X119412857Y-74628571D01*
X119270000Y-74700000D01*
X119198571Y-74771428D01*
X119127142Y-74914285D01*
X119127142Y-75342857D01*
X119198571Y-75485714D01*
X119270000Y-75557142D01*
X119412857Y-75628571D01*
X119627142Y-75628571D01*
X118270000Y-75628571D02*
X118412857Y-75557142D01*
X118484285Y-75414285D01*
X118484285Y-74128571D01*
X117484285Y-75628571D02*
X117627142Y-75557142D01*
X117698571Y-75414285D01*
X117698571Y-74128571D01*
X116341428Y-75557142D02*
X116484285Y-75628571D01*
X116770000Y-75628571D01*
X116912857Y-75557142D01*
X116984285Y-75414285D01*
X116984285Y-74842857D01*
X116912857Y-74700000D01*
X116770000Y-74628571D01*
X116484285Y-74628571D01*
X116341428Y-74700000D01*
X116270000Y-74842857D01*
X116270000Y-74985714D01*
X116984285Y-75128571D01*
X115627142Y-75628571D02*
X115627142Y-74628571D01*
X115627142Y-74914285D02*
X115555714Y-74771428D01*
X115484285Y-74700000D01*
X115341428Y-74628571D01*
X115198571Y-74628571D01*
X128805714Y-76678571D02*
X128305714Y-78178571D01*
X127805714Y-76678571D01*
X127020000Y-76678571D02*
X126877142Y-76678571D01*
X126734285Y-76750000D01*
X126662857Y-76821428D01*
X126591428Y-76964285D01*
X126520000Y-77250000D01*
X126520000Y-77607142D01*
X126591428Y-77892857D01*
X126662857Y-78035714D01*
X126734285Y-78107142D01*
X126877142Y-78178571D01*
X127020000Y-78178571D01*
X127162857Y-78107142D01*
X127234285Y-78035714D01*
X127305714Y-77892857D01*
X127377142Y-77607142D01*
X127377142Y-77250000D01*
X127305714Y-76964285D01*
X127234285Y-76821428D01*
X127162857Y-76750000D01*
X127020000Y-76678571D01*
X125877142Y-78035714D02*
X125805714Y-78107142D01*
X125877142Y-78178571D01*
X125948571Y-78107142D01*
X125877142Y-78035714D01*
X125877142Y-78178571D01*
X125091428Y-78178571D02*
X124805714Y-78178571D01*
X124662857Y-78107142D01*
X124591428Y-78035714D01*
X124448571Y-77821428D01*
X124377142Y-77535714D01*
X124377142Y-76964285D01*
X124448571Y-76821428D01*
X124520000Y-76750000D01*
X124662857Y-76678571D01*
X124948571Y-76678571D01*
X125091428Y-76750000D01*
X125162857Y-76821428D01*
X125234285Y-76964285D01*
X125234285Y-77321428D01*
X125162857Y-77464285D01*
X125091428Y-77535714D01*
X124948571Y-77607142D01*
X124662857Y-77607142D01*
X124520000Y-77535714D01*
X124448571Y-77464285D01*
X124377142Y-77321428D01*
M02*
