<?xml version="1.0" standalone="no"?>
 <!DOCTYPE svg PUBLIC "-//W3C//DTD SVG 1.1//EN" 
 "http://www.w3.org/Graphics/SVG/1.1/DTD/svg11.dtd"> 
<svg xmlns="http://www.w3.org/2000/svg" version="1.1" 
    width="29.7002cm" height="21.0007cm" viewBox="0 0 116930 82680 ">
<title>SVG Picture created as Sequence Controller-drl_map.svg date 2019/10/17 16:02:21 </title>
  <desc>Picture generated by PCBNEW </desc>
<g style="fill:#000000; fill-opacity:1;stroke:#000000; stroke-opacity:1;
stroke-linecap:round; stroke-linejoin:round; "
 transform="translate(0 0) scale(1 1)">
</g>
<g style="fill:#000000; fill-opacity:0.0; 
stroke:#000000; stroke-width:-0.000393701; stroke-opacity:1; 
stroke-linecap:round; stroke-linejoin:round;">
</g>
<g style="fill:#000000; fill-opacity:0.0; 
stroke:#000000; stroke-width:78.7402; stroke-opacity:1; 
stroke-linecap:round; stroke-linejoin:round;">
<path d="M43834 27762 A423 423 0.0 0 0 43411 28185 " />
<path d="M55391 28195 A435 435 0.0 0 0 54969.8 27760.2 " />
<path d="M43410 49731 A438.138 438.138 0.0 0 0 43858.8 50180 " />
<path d="M54978 50181 A401.15 401.15 0.0 0 0 55390 49769 " />
</g>
<g style="fill:#000000; fill-opacity:0.0; 
stroke:#000000; stroke-width:59.0551; stroke-opacity:1; 
stroke-linecap:round; stroke-linejoin:round;">
<path d="M43400 49739
L43400 28192
" />
<path d="M54981 50192
L43850 50192
" />
<path d="M55400 28169
L55400 49774
" />
<path d="M43835 27750
L54966 27750
" />
</g>
<g style="fill:#000000; fill-opacity:0.0; 
stroke:#000000; stroke-width:78.7402; stroke-opacity:1; 
stroke-linecap:round; stroke-linejoin:round;">
<path d="M46003 40685
L46161 40842
" />
<path d="M46161 40685
L46003 40842
" />
<path d="M46114 41677
L46271 41834
" />
<path d="M46271 41677
L46114 41834
" />
<path d="M46417 46285
L46574 46442
" />
<path d="M46574 46285
L46417 46442
" />
<path d="M47337 44857
L47494 45014
" />
<path d="M47494 44857
L47337 45014
" />
<path d="M47337 45264
L47494 45421
" />
<path d="M47494 45264
L47337 45421
" />
<path d="M47654 36604
L47811 36761
" />
<path d="M47811 36604
L47654 36761
" />
<path d="M48279 46813
L48436 46970
" />
<path d="M48436 46813
L48279 46970
" />
<path d="M48279 47220
L48436 47377
" />
<path d="M48436 47220
L48279 47377
" />
<path d="M48558 46308
L48715 46465
" />
<path d="M48715 46308
L48558 46465
" />
<path d="M48641 38011
L48799 38169
" />
<path d="M48799 38011
L48641 38169
" />
<path d="M49347 45238
L49504 45395
" />
<path d="M49504 45238
L49347 45395
" />
<path d="M49356 44859
L49513 45016
" />
<path d="M49513 44859
L49356 45016
" />
<path d="M50299 46813
L50456 46970
" />
<path d="M50456 46813
L50299 46970
" />
<path d="M50306 47227
L50463 47384
" />
<path d="M50463 47227
L50306 47384
" />
<path d="M50525 46330
L50682 46487
" />
<path d="M50682 46330
L50525 46487
" />
<path d="M50536 38470
L50693 38627
" />
<path d="M50693 38470
L50536 38627
" />
<path d="M51301 45242
L51458 45399
" />
<path d="M51458 45242
L51301 45399
" />
<path d="M51309 44827
L51466 44984
" />
<path d="M51466 44827
L51309 44984
" />
<path d="M51930 39206
L52087 39363
" />
<path d="M52087 39206
L51930 39363
" />
<path d="M52333 46828
L52490 46985
" />
<path d="M52490 46828
L52333 46985
" />
<path d="M52333 47212
L52490 47369
" />
<path d="M52490 47212
L52333 47369
" />
<path d="M52424 46360
L52581 46517
" />
<path d="M52581 46360
L52424 46517
" />
<path d="M53298 45325
L53455 45482
" />
<path d="M53455 45325
L53298 45482
" />
<path d="M53305 44874
L53462 45031
" />
<path d="M53462 44874
L53305 45031
" />
<path d="M54278 47190
L54435 47347
" />
<path d="M54435 47190
L54278 47347
" />
<path d="M54670 47190
L54827 47347
" />
<path d="M54827 47190
L54670 47347
" />
<circle cx="45992.1" cy="31425.2" r="196.85" /> 
<circle cx="45992.1" cy="32425.2" r="196.85" /> 
<circle cx="45992.1" cy="33425.2" r="196.85" /> 
<circle cx="45992.1" cy="34425.2" r="196.85" /> 
<circle cx="45992.1" cy="35425.2" r="196.85" /> 
<circle cx="45992.1" cy="36425.2" r="196.85" /> 
<circle cx="45992.1" cy="37425.2" r="196.85" /> 
<circle cx="45992.1" cy="38425.2" r="196.85" /> 
<circle cx="45992.1" cy="39425.2" r="196.85" /> 
<circle cx="52800" cy="31425.2" r="196.85" /> 
<circle cx="52800" cy="32425.2" r="196.85" /> 
<circle cx="52800" cy="33425.2" r="196.85" /> 
<circle cx="52800" cy="34425.2" r="196.85" /> 
<circle cx="52800" cy="35425.2" r="196.85" /> 
<circle cx="52800" cy="36425.2" r="196.85" /> 
<circle cx="52800" cy="37425.2" r="196.85" /> 
<circle cx="52800" cy="38425.2" r="196.85" /> 
<circle cx="52800" cy="39425.2" r="196.85" /> 
<circle cx="44393" cy="48806" r="196.85" /> 
<circle cx="45393" cy="48806" r="196.85" /> 
<circle cx="46393" cy="48806" r="196.85" /> 
<circle cx="47393" cy="48806" r="196.85" /> 
<circle cx="48393" cy="48806" r="196.85" /> 
<circle cx="49393" cy="48806" r="196.85" /> 
<circle cx="50393" cy="48806" r="196.85" /> 
<circle cx="51393" cy="48806" r="196.85" /> 
<circle cx="52393" cy="48806" r="196.85" /> 
<circle cx="53393" cy="48806" r="196.85" /> 
<circle cx="54393" cy="48806" r="196.85" /> 
<circle cx="44400" cy="29750" r="196.85" /> 
<circle cx="44400" cy="30750" r="196.85" /> 
<circle cx="44400" cy="31750" r="196.85" /> 
<circle cx="44400" cy="32750" r="196.85" /> 
<circle cx="44400" cy="33750" r="196.85" /> 
<circle cx="44400" cy="34750" r="196.85" /> 
<circle cx="44400" cy="35750" r="196.85" /> 
<circle cx="44400" cy="36750" r="196.85" /> 
<circle cx="44400" cy="37750" r="196.85" /> 
<circle cx="44400" cy="38750" r="196.85" /> 
<circle cx="44400" cy="39750" r="196.85" /> 
<circle cx="44400" cy="40750" r="196.85" /> 
<circle cx="44400" cy="41750" r="196.85" /> 
<circle cx="44400" cy="42750" r="196.85" /> 
<circle cx="44400" cy="43750" r="196.85" /> 
<circle cx="54400" cy="29750" r="196.85" /> 
<circle cx="54400" cy="30750" r="196.85" /> 
<circle cx="54400" cy="31750" r="196.85" /> 
<circle cx="54400" cy="32750" r="196.85" /> 
<circle cx="54400" cy="33750" r="196.85" /> 
<circle cx="54400" cy="34750" r="196.85" /> 
<circle cx="54400" cy="35750" r="196.85" /> 
<circle cx="54400" cy="36750" r="196.85" /> 
<circle cx="54400" cy="37750" r="196.85" /> 
<circle cx="54400" cy="38750" r="196.85" /> 
<circle cx="54400" cy="39750" r="196.85" /> 
<circle cx="54400" cy="40750" r="196.85" /> 
<circle cx="54400" cy="41750" r="196.85" /> 
<circle cx="54400" cy="42750" r="196.85" /> 
<circle cx="54400" cy="43750" r="196.85" /> 
</g>
<g style="fill:#000000; fill-opacity:0.0; 
stroke:#000000; stroke-width:118.11; stroke-opacity:1; 
stroke-linecap:round; stroke-linejoin:round;">
<path d="M44498 52055
L44498 50873
L44779 50873
L44948 50930
L45060 51042
L45116 51155
L45173 51380
L45173 51548
L45116 51773
L45060 51886
L44948 51998
L44779 52055
L44498 52055
" />
<path d="M45679 52055
L45679 51267
" />
<path d="M45679 51492
L45735 51380
L45791 51323
L45904 51267
L46016 51267
" />
<path d="M46410 52055
L46410 51267
" />
<path d="M46410 50873
L46354 50930
L46410 50986
L46466 50930
L46410 50873
L46410 50986
" />
<path d="M47141 52055
L47029 51998
L46972 51886
L46972 50873
" />
<path d="M47760 52055
L47647 51998
L47591 51886
L47591 50873
" />
<path d="M49110 52055
L49110 50873
L49503 51717
L49897 50873
L49897 52055
" />
<path d="M50966 52055
L50966 51436
L50909 51323
L50797 51267
L50572 51267
L50459 51323
" />
<path d="M50966 51998
L50853 52055
L50572 52055
L50459 51998
L50403 51886
L50403 51773
L50459 51661
L50572 51605
L50853 51605
L50966 51548
" />
<path d="M51528 51267
L51528 52448
" />
<path d="M51528 51323
L51641 51267
L51865 51267
L51978 51323
L52034 51380
L52090 51492
L52090 51830
L52034 51942
L51978 51998
L51865 52055
L51641 52055
L51528 51998
" />
<path d="M52597 51942
L52653 51998
L52597 52055
L52540 51998
L52597 51942
L52597 52055
" />
<path d="M52597 51323
L52653 51380
L52597 51436
L52540 51380
L52597 51323
L52597 51436
" />
<path d="M43212 53922
L43370 54079
" />
<path d="M43370 53922
L43212 54079
" />
<path d="M44723 53354
L44835 53354
L44948 53410
L45004 53466
L45060 53579
L45116 53804
L45116 54085
L45060 54310
L45004 54422
L44948 54479
L44835 54535
L44723 54535
L44610 54479
L44554 54422
L44498 54310
L44441 54085
L44441 53804
L44498 53579
L44554 53466
L44610 53410
L44723 53354
" />
<path d="M45623 54422
L45679 54479
L45623 54535
L45566 54479
L45623 54422
L45623 54535
" />
<path d="M46691 53747
L46691 54535
" />
<path d="M46410 53298
L46129 54141
L46860 54141
" />
<path d="M47535 53354
L47647 53354
L47760 53410
L47816 53466
L47872 53579
L47928 53804
L47928 54085
L47872 54310
L47816 54422
L47760 54479
L47647 54535
L47535 54535
L47422 54479
L47366 54422
L47310 54310
L47254 54085
L47254 53804
L47310 53579
L47366 53466
L47422 53410
L47535 53354
" />
<path d="M48435 54535
L48435 53747
" />
<path d="M48435 53860
L48491 53804
L48603 53747
L48772 53747
L48885 53804
L48941 53916
L48941 54535
" />
<path d="M48941 53916
L48997 53804
L49110 53747
L49278 53747
L49391 53804
L49447 53916
L49447 54535
" />
<path d="M50009 54535
L50009 53747
" />
<path d="M50009 53860
L50066 53804
L50178 53747
L50347 53747
L50459 53804
L50516 53916
L50516 54535
" />
<path d="M50516 53916
L50572 53804
L50684 53747
L50853 53747
L50966 53804
L51022 53916
L51022 54535
" />
<path d="M53328 53298
L52315 54816
" />
<path d="M54846 53354
L54959 53354
L55071 53410
L55128 53466
L55184 53579
L55240 53804
L55240 54085
L55184 54310
L55128 54422
L55071 54479
L54959 54535
L54846 54535
L54734 54479
L54678 54422
L54621 54310
L54565 54085
L54565 53804
L54621 53579
L54678 53466
L54734 53410
L54846 53354
" />
<path d="M55746 54422
L55802 54479
L55746 54535
L55690 54479
L55746 54422
L55746 54535
" />
<path d="M56534 53354
L56646 53354
L56759 53410
L56815 53466
L56871 53579
L56927 53804
L56927 54085
L56871 54310
L56815 54422
L56759 54479
L56646 54535
L56534 54535
L56421 54479
L56365 54422
L56309 54310
L56252 54085
L56252 53804
L56309 53579
L56365 53466
L56421 53410
L56534 53354
" />
<path d="M58052 54535
L57377 54535
" />
<path d="M57715 54535
L57715 53354
L57602 53522
L57490 53635
L57377 53691
" />
<path d="M59065 53354
L58840 53354
L58727 53410
L58671 53466
L58558 53635
L58502 53860
L58502 54310
L58558 54422
L58615 54479
L58727 54535
L58952 54535
L59065 54479
L59121 54422
L59177 54310
L59177 54029
L59121 53916
L59065 53860
L58952 53804
L58727 53804
L58615 53860
L58558 53916
L58502 54029
" />
<path d="M59627 53354
L59627 53579
" />
<path d="M60077 53354
L60077 53579
" />
<path d="M61820 54985
L61764 54929
L61652 54760
L61596 54647
L61539 54479
L61483 54197
L61483 53972
L61539 53691
L61596 53522
L61652 53410
L61764 53241
L61820 53185
" />
<path d="M62214 53466
L62270 53410
L62383 53354
L62664 53354
L62777 53410
L62833 53466
L62889 53579
L62889 53691
L62833 53860
L62158 54535
L62889 54535
" />
<path d="M63901 53354
L63676 53354
L63564 53410
L63508 53466
L63395 53635
L63339 53860
L63339 54310
L63395 54422
L63452 54479
L63564 54535
L63789 54535
L63901 54479
L63958 54422
L64014 54310
L64014 54029
L63958 53916
L63901 53860
L63789 53804
L63564 53804
L63452 53860
L63395 53916
L63339 54029
" />
<path d="M65420 54535
L65420 53354
" />
<path d="M65926 54535
L65926 53916
L65870 53804
L65757 53747
L65589 53747
L65476 53804
L65420 53860
" />
<path d="M66657 54535
L66545 54479
L66489 54422
L66432 54310
L66432 53972
L66489 53860
L66545 53804
L66657 53747
L66826 53747
L66939 53804
L66995 53860
L67051 53972
L67051 54310
L66995 54422
L66939 54479
L66826 54535
L66657 54535
" />
<path d="M67726 54535
L67614 54479
L67557 54366
L67557 53354
" />
<path d="M68626 54479
L68513 54535
L68288 54535
L68176 54479
L68120 54366
L68120 53916
L68176 53804
L68288 53747
L68513 53747
L68626 53804
L68682 53916
L68682 54029
L68120 54141
" />
<path d="M69132 54479
L69245 54535
L69470 54535
L69582 54479
L69638 54366
L69638 54310
L69582 54197
L69470 54141
L69301 54141
L69188 54085
L69132 53972
L69132 53916
L69188 53804
L69301 53747
L69470 53747
L69582 53804
" />
<path d="M70032 54985
L70088 54929
L70201 54760
L70257 54647
L70313 54479
L70369 54197
L70369 53972
L70313 53691
L70257 53522
L70201 53410
L70088 53241
L70032 53185
" />
<circle cx="43173.6" cy="55560.1" r="196.85" /> 
<path d="M45116 56094
L44441 56094
" />
<path d="M44779 56094
L44779 54913
L44666 55082
L44554 55194
L44441 55250
" />
<path d="M45623 55981
L45679 56038
L45623 56094
L45566 56038
L45623 55981
L45623 56094
" />
<path d="M46410 54913
L46522 54913
L46635 54969
L46691 55025
L46747 55138
L46804 55363
L46804 55644
L46747 55869
L46691 55981
L46635 56038
L46522 56094
L46410 56094
L46297 56038
L46241 55981
L46185 55869
L46129 55644
L46129 55363
L46185 55138
L46241 55025
L46297 54969
L46410 54913
" />
<path d="M47535 54913
L47647 54913
L47760 54969
L47816 55025
L47872 55138
L47928 55363
L47928 55644
L47872 55869
L47816 55981
L47760 56038
L47647 56094
L47535 56094
L47422 56038
L47366 55981
L47310 55869
L47254 55644
L47254 55363
L47310 55138
L47366 55025
L47422 54969
L47535 54913
" />
<path d="M48435 56094
L48435 55307
" />
<path d="M48435 55419
L48491 55363
L48603 55307
L48772 55307
L48885 55363
L48941 55475
L48941 56094
" />
<path d="M48941 55475
L48997 55363
L49110 55307
L49278 55307
L49391 55363
L49447 55475
L49447 56094
" />
<path d="M50009 56094
L50009 55307
" />
<path d="M50009 55419
L50066 55363
L50178 55307
L50347 55307
L50459 55363
L50516 55475
L50516 56094
" />
<path d="M50516 55475
L50572 55363
L50684 55307
L50853 55307
L50966 55363
L51022 55475
L51022 56094
" />
<path d="M53328 54857
L52315 56375
" />
<path d="M54846 54913
L54959 54913
L55071 54969
L55128 55025
L55184 55138
L55240 55363
L55240 55644
L55184 55869
L55128 55981
L55071 56038
L54959 56094
L54846 56094
L54734 56038
L54678 55981
L54621 55869
L54565 55644
L54565 55363
L54621 55138
L54678 55025
L54734 54969
L54846 54913
" />
<path d="M55746 55981
L55802 56038
L55746 56094
L55690 56038
L55746 55981
L55746 56094
" />
<path d="M56534 54913
L56646 54913
L56759 54969
L56815 55025
L56871 55138
L56927 55363
L56927 55644
L56871 55869
L56815 55981
L56759 56038
L56646 56094
L56534 56094
L56421 56038
L56365 55981
L56309 55869
L56252 55644
L56252 55363
L56309 55138
L56365 55025
L56421 54969
L56534 54913
" />
<path d="M57321 54913
L58052 54913
L57658 55363
L57827 55363
L57940 55419
L57996 55475
L58052 55588
L58052 55869
L57996 55981
L57940 56038
L57827 56094
L57490 56094
L57377 56038
L57321 55981
" />
<path d="M58615 56094
L58840 56094
L58952 56038
L59008 55981
L59121 55813
L59177 55588
L59177 55138
L59121 55025
L59065 54969
L58952 54913
L58727 54913
L58615 54969
L58558 55025
L58502 55138
L58502 55419
L58558 55531
L58615 55588
L58727 55644
L58952 55644
L59065 55588
L59121 55531
L59177 55419
" />
<path d="M59627 54913
L59627 55138
" />
<path d="M60077 54913
L60077 55138
" />
<path d="M61820 56544
L61764 56488
L61652 56319
L61596 56206
L61539 56038
L61483 55756
L61483 55531
L61539 55250
L61596 55082
L61652 54969
L61764 54800
L61820 54744
" />
<path d="M62833 54913
L62270 54913
L62214 55475
L62270 55419
L62383 55363
L62664 55363
L62777 55419
L62833 55475
L62889 55588
L62889 55869
L62833 55981
L62777 56038
L62664 56094
L62383 56094
L62270 56038
L62214 55981
" />
<path d="M63452 56094
L63676 56094
L63789 56038
L63845 55981
L63958 55813
L64014 55588
L64014 55138
L63958 55025
L63901 54969
L63789 54913
L63564 54913
L63452 54969
L63395 55025
L63339 55138
L63339 55419
L63395 55531
L63452 55588
L63564 55644
L63789 55644
L63901 55588
L63958 55531
L64014 55419
" />
<path d="M65420 56094
L65420 54913
" />
<path d="M65926 56094
L65926 55475
L65870 55363
L65757 55307
L65589 55307
L65476 55363
L65420 55419
" />
<path d="M66657 56094
L66545 56038
L66489 55981
L66432 55869
L66432 55531
L66489 55419
L66545 55363
L66657 55307
L66826 55307
L66939 55363
L66995 55419
L67051 55531
L67051 55869
L66995 55981
L66939 56038
L66826 56094
L66657 56094
" />
<path d="M67726 56094
L67614 56038
L67557 55925
L67557 54913
" />
<path d="M68626 56038
L68513 56094
L68288 56094
L68176 56038
L68120 55925
L68120 55475
L68176 55363
L68288 55307
L68513 55307
L68626 55363
L68682 55475
L68682 55588
L68120 55700
" />
<path d="M69132 56038
L69245 56094
L69470 56094
L69582 56038
L69638 55925
L69638 55869
L69582 55756
L69470 55700
L69301 55700
L69188 55644
L69132 55531
L69132 55475
L69188 55363
L69301 55307
L69470 55307
L69582 55363
" />
<path d="M70032 56544
L70088 56488
L70201 56319
L70257 56206
L70313 56038
L70369 55756
L70369 55531
L70313 55250
L70257 55082
L70201 54969
L70088 54800
L70032 54744
" />
</g> 
</svg>
