G04 #@! TF.GenerationSoftware,KiCad,Pcbnew,(5.0.0)*
G04 #@! TF.CreationDate,2019-08-02T15:13:00-07:00*
G04 #@! TF.ProjectId,Sequence Controller,53657175656E636520436F6E74726F6C,rev?*
G04 #@! TF.SameCoordinates,Original*
G04 #@! TF.FileFunction,Soldermask,Bot*
G04 #@! TF.FilePolarity,Negative*
%FSLAX46Y46*%
G04 Gerber Fmt 4.6, Leading zero omitted, Abs format (unit mm)*
G04 Created by KiCad (PCBNEW (5.0.0)) date 08/02/19 15:13:00*
%MOMM*%
%LPD*%
G01*
G04 APERTURE LIST*
%ADD10C,2.100000*%
%ADD11O,2.100000X2.100000*%
%ADD12R,2.100000X2.100000*%
G04 APERTURE END LIST*
D10*
G04 #@! TO.C,U1*
X112760001Y-75590001D03*
X112760001Y-78130001D03*
X112760001Y-80670001D03*
X112760001Y-83210001D03*
X112760001Y-85750001D03*
X112760001Y-88290001D03*
X112760001Y-90830001D03*
X112760001Y-93370001D03*
X112760001Y-95910001D03*
X112760001Y-98450001D03*
X112760001Y-100990001D03*
X112760001Y-103530001D03*
X112760001Y-106070001D03*
X112760001Y-108610001D03*
X112760001Y-111150001D03*
X140700001Y-111150001D03*
X140700001Y-108610001D03*
X140700001Y-106070001D03*
X140700001Y-103530001D03*
X140700001Y-100990001D03*
X140700001Y-98450001D03*
X140700001Y-95910001D03*
X140700001Y-93370001D03*
X140700001Y-90830001D03*
X140700001Y-88290001D03*
X140700001Y-85750001D03*
X140700001Y-83210001D03*
X140700001Y-80670001D03*
X140700001Y-78130001D03*
X140700001Y-75590001D03*
G04 #@! TD*
D11*
G04 #@! TO.C,ExtIn1*
X136410000Y-100140000D03*
X136410000Y-97600000D03*
X136410000Y-95060000D03*
X136410000Y-92520000D03*
X136410000Y-89980000D03*
X136410000Y-87440000D03*
X136410000Y-84900000D03*
X136410000Y-82360000D03*
D12*
X136410000Y-79820000D03*
G04 #@! TD*
G04 #@! TO.C,ExtOut1*
X116820000Y-79820000D03*
D11*
X116820000Y-82360000D03*
X116820000Y-84900000D03*
X116820000Y-87440000D03*
X116820000Y-89980000D03*
X116820000Y-92520000D03*
X116820000Y-95060000D03*
X116820000Y-97600000D03*
X116820000Y-100140000D03*
G04 #@! TD*
G04 #@! TO.C,Output1*
X120600000Y-118940000D03*
X123140000Y-118940000D03*
X125680000Y-118940000D03*
X128220000Y-118940000D03*
X130760000Y-118940000D03*
X133300000Y-118940000D03*
X135840000Y-118940000D03*
X138380000Y-118940000D03*
D12*
X140920000Y-118940000D03*
G04 #@! TD*
D11*
G04 #@! TO.C,J1*
X115420000Y-118940000D03*
D12*
X112880000Y-118940000D03*
G04 #@! TD*
M02*
