G04 #@! TF.GenerationSoftware,KiCad,Pcbnew,(5.0.0)*
G04 #@! TF.CreationDate,2019-08-02T15:13:00-07:00*
G04 #@! TF.ProjectId,Sequence Controller,53657175656E636520436F6E74726F6C,rev?*
G04 #@! TF.SameCoordinates,Original*
G04 #@! TF.FileFunction,Copper,L2,Bot,Signal*
G04 #@! TF.FilePolarity,Positive*
%FSLAX46Y46*%
G04 Gerber Fmt 4.6, Leading zero omitted, Abs format (unit mm)*
G04 Created by KiCad (PCBNEW (5.0.0)) date 08/02/19 15:13:00*
%MOMM*%
%LPD*%
G01*
G04 APERTURE LIST*
G04 #@! TA.AperFunction,ComponentPad*
%ADD10C,1.700000*%
G04 #@! TD*
G04 #@! TA.AperFunction,ComponentPad*
%ADD11O,1.700000X1.700000*%
G04 #@! TD*
G04 #@! TA.AperFunction,ComponentPad*
%ADD12R,1.700000X1.700000*%
G04 #@! TD*
G04 #@! TA.AperFunction,ViaPad*
%ADD13C,0.800000*%
G04 #@! TD*
G04 #@! TA.AperFunction,Conductor*
%ADD14C,0.500000*%
G04 #@! TD*
G04 #@! TA.AperFunction,Conductor*
%ADD15C,1.000000*%
G04 #@! TD*
G04 APERTURE END LIST*
D10*
G04 #@! TO.P,U1,1*
G04 #@! TO.N,Net-(U1-Pad1)*
X112760001Y-75590001D03*
G04 #@! TO.P,U1,2*
G04 #@! TO.N,Net-(U1-Pad2)*
X112760001Y-78130001D03*
G04 #@! TO.P,U1,3*
G04 #@! TO.N,Net-(U1-Pad3)*
X112760001Y-80670001D03*
G04 #@! TO.P,U1,4*
G04 #@! TO.N,Net-(U1-Pad4)*
X112760001Y-83210001D03*
G04 #@! TO.P,U1,5*
G04 #@! TO.N,Net-(U1-Pad5)*
X112760001Y-85750001D03*
G04 #@! TO.P,U1,6*
G04 #@! TO.N,Net-(ExtOut1-Pad3)*
X112760001Y-88290001D03*
G04 #@! TO.P,U1,7*
G04 #@! TO.N,Net-(ExtOut1-Pad4)*
X112760001Y-90830001D03*
G04 #@! TO.P,U1,8*
G04 #@! TO.N,Net-(ExtOut1-Pad5)*
X112760001Y-93370001D03*
G04 #@! TO.P,U1,9*
G04 #@! TO.N,Net-(ExtOut1-Pad6)*
X112760001Y-95910001D03*
G04 #@! TO.P,U1,10*
G04 #@! TO.N,Net-(ExtOut1-Pad7)*
X112760001Y-98450001D03*
G04 #@! TO.P,U1,11*
G04 #@! TO.N,Net-(ExtOut1-Pad8)*
X112760001Y-100990001D03*
G04 #@! TO.P,U1,12*
G04 #@! TO.N,Net-(ExtOut1-Pad2)*
X112760001Y-103530001D03*
G04 #@! TO.P,U1,13*
G04 #@! TO.N,Net-(ExtOut1-Pad1)*
X112760001Y-106070001D03*
G04 #@! TO.P,U1,14*
G04 #@! TO.N,/GND*
X112760001Y-108610001D03*
G04 #@! TO.P,U1,15*
G04 #@! TO.N,Net-(J1-Pad1)*
X112760001Y-111150001D03*
G04 #@! TO.P,U1,16*
G04 #@! TO.N,Net-(U1-Pad16)*
X140700001Y-111150001D03*
G04 #@! TO.P,U1,17*
G04 #@! TO.N,/GND*
X140700001Y-108610001D03*
G04 #@! TO.P,U1,18*
G04 #@! TO.N,Net-(U1-Pad18)*
X140700001Y-106070001D03*
G04 #@! TO.P,U1,19*
G04 #@! TO.N,Net-(ExtIn1-Pad8)*
X140700001Y-103530001D03*
G04 #@! TO.P,U1,20*
G04 #@! TO.N,Net-(ExtIn1-Pad7)*
X140700001Y-100990001D03*
G04 #@! TO.P,U1,21*
G04 #@! TO.N,Net-(U1-Pad21)*
X140700001Y-98450001D03*
G04 #@! TO.P,U1,22*
G04 #@! TO.N,Net-(U1-Pad22)*
X140700001Y-95910001D03*
G04 #@! TO.P,U1,23*
G04 #@! TO.N,Net-(ExtIn1-Pad6)*
X140700001Y-93370001D03*
G04 #@! TO.P,U1,24*
G04 #@! TO.N,Net-(ExtIn1-Pad5)*
X140700001Y-90830001D03*
G04 #@! TO.P,U1,25*
G04 #@! TO.N,Net-(ExtIn1-Pad4)*
X140700001Y-88290001D03*
G04 #@! TO.P,U1,26*
G04 #@! TO.N,Net-(ExtIn1-Pad3)*
X140700001Y-85750001D03*
G04 #@! TO.P,U1,27*
G04 #@! TO.N,Net-(U1-Pad27)*
X140700001Y-83210001D03*
G04 #@! TO.P,U1,28*
G04 #@! TO.N,Net-(U1-Pad28)*
X140700001Y-80670001D03*
G04 #@! TO.P,U1,29*
G04 #@! TO.N,Net-(ExtIn1-Pad2)*
X140700001Y-78130001D03*
G04 #@! TO.P,U1,30*
G04 #@! TO.N,Net-(ExtIn1-Pad1)*
X140700001Y-75590001D03*
G04 #@! TD*
D11*
G04 #@! TO.P,ExtIn1,9*
G04 #@! TO.N,/GND*
X136410000Y-100140000D03*
G04 #@! TO.P,ExtIn1,8*
G04 #@! TO.N,Net-(ExtIn1-Pad8)*
X136410000Y-97600000D03*
G04 #@! TO.P,ExtIn1,7*
G04 #@! TO.N,Net-(ExtIn1-Pad7)*
X136410000Y-95060000D03*
G04 #@! TO.P,ExtIn1,6*
G04 #@! TO.N,Net-(ExtIn1-Pad6)*
X136410000Y-92520000D03*
G04 #@! TO.P,ExtIn1,5*
G04 #@! TO.N,Net-(ExtIn1-Pad5)*
X136410000Y-89980000D03*
G04 #@! TO.P,ExtIn1,4*
G04 #@! TO.N,Net-(ExtIn1-Pad4)*
X136410000Y-87440000D03*
G04 #@! TO.P,ExtIn1,3*
G04 #@! TO.N,Net-(ExtIn1-Pad3)*
X136410000Y-84900000D03*
G04 #@! TO.P,ExtIn1,2*
G04 #@! TO.N,Net-(ExtIn1-Pad2)*
X136410000Y-82360000D03*
D12*
G04 #@! TO.P,ExtIn1,1*
G04 #@! TO.N,Net-(ExtIn1-Pad1)*
X136410000Y-79820000D03*
G04 #@! TD*
G04 #@! TO.P,ExtOut1,1*
G04 #@! TO.N,Net-(ExtOut1-Pad1)*
X116820000Y-79820000D03*
D11*
G04 #@! TO.P,ExtOut1,2*
G04 #@! TO.N,Net-(ExtOut1-Pad2)*
X116820000Y-82360000D03*
G04 #@! TO.P,ExtOut1,3*
G04 #@! TO.N,Net-(ExtOut1-Pad3)*
X116820000Y-84900000D03*
G04 #@! TO.P,ExtOut1,4*
G04 #@! TO.N,Net-(ExtOut1-Pad4)*
X116820000Y-87440000D03*
G04 #@! TO.P,ExtOut1,5*
G04 #@! TO.N,Net-(ExtOut1-Pad5)*
X116820000Y-89980000D03*
G04 #@! TO.P,ExtOut1,6*
G04 #@! TO.N,Net-(ExtOut1-Pad6)*
X116820000Y-92520000D03*
G04 #@! TO.P,ExtOut1,7*
G04 #@! TO.N,Net-(ExtOut1-Pad7)*
X116820000Y-95060000D03*
G04 #@! TO.P,ExtOut1,8*
G04 #@! TO.N,Net-(ExtOut1-Pad8)*
X116820000Y-97600000D03*
G04 #@! TO.P,ExtOut1,9*
G04 #@! TO.N,/GND*
X116820000Y-100140000D03*
G04 #@! TD*
G04 #@! TO.P,Output1,9*
G04 #@! TO.N,Net-(Output1-Pad9)*
X120600000Y-118940000D03*
G04 #@! TO.P,Output1,8*
G04 #@! TO.N,Net-(Output1-Pad8)*
X123140000Y-118940000D03*
G04 #@! TO.P,Output1,7*
G04 #@! TO.N,Net-(Output1-Pad7)*
X125680000Y-118940000D03*
G04 #@! TO.P,Output1,6*
G04 #@! TO.N,Net-(Output1-Pad6)*
X128220000Y-118940000D03*
G04 #@! TO.P,Output1,5*
G04 #@! TO.N,Net-(Output1-Pad5)*
X130760000Y-118940000D03*
G04 #@! TO.P,Output1,4*
G04 #@! TO.N,Net-(Output1-Pad4)*
X133300000Y-118940000D03*
G04 #@! TO.P,Output1,3*
G04 #@! TO.N,Net-(Output1-Pad3)*
X135840000Y-118940000D03*
G04 #@! TO.P,Output1,2*
G04 #@! TO.N,Net-(Output1-Pad2)*
X138380000Y-118940000D03*
D12*
G04 #@! TO.P,Output1,1*
G04 #@! TO.N,/GND*
X140920000Y-118940000D03*
G04 #@! TD*
D11*
G04 #@! TO.P,J1,2*
G04 #@! TO.N,/GND*
X115420000Y-118940000D03*
D12*
G04 #@! TO.P,J1,1*
G04 #@! TO.N,Net-(J1-Pad1)*
X112880000Y-118940000D03*
G04 #@! TD*
D13*
G04 #@! TO.N,Net-(ExtIn1-Pad8)*
X133550000Y-113150000D03*
X133540000Y-100160000D03*
G04 #@! TO.N,Net-(ExtIn1-Pad6)*
X128750000Y-98250000D03*
X128750000Y-113250000D03*
G04 #@! TO.N,Net-(ExtIn1-Pad4)*
X123750000Y-96750000D03*
X123750000Y-113250000D03*
G04 #@! TO.N,Net-(ExtIn1-Pad2)*
X118370000Y-113180000D03*
X121500000Y-93250000D03*
G04 #@! TO.N,Net-(ExtOut1-Pad1)*
X117330000Y-106060000D03*
G04 #@! TO.N,Net-(ExtOut1-Pad2)*
X117050000Y-103540000D03*
G04 #@! TO.N,Net-(Output1-Pad9)*
X120670000Y-109300000D03*
X120654150Y-110240000D03*
G04 #@! TO.N,Net-(Output1-Pad8)*
X123080000Y-115490000D03*
X123080000Y-114410000D03*
G04 #@! TO.N,Net-(Output1-Pad7)*
X125761397Y-110330000D03*
X125800000Y-109320000D03*
G04 #@! TO.N,Net-(Output1-Pad6)*
X128210000Y-114430000D03*
X128204035Y-115340000D03*
G04 #@! TO.N,Net-(Output1-Pad5)*
X130720000Y-109310000D03*
X130778045Y-110260000D03*
G04 #@! TO.N,Net-(Output1-Pad4)*
X133330000Y-114420000D03*
X133331648Y-115340000D03*
G04 #@! TO.N,Net-(Output1-Pad3)*
X135867144Y-110290000D03*
X135870000Y-109320000D03*
G04 #@! TO.N,Net-(Output1-Pad2)*
X138350000Y-115540000D03*
X138380000Y-114360000D03*
G04 #@! TD*
D14*
G04 #@! TO.N,Net-(ExtIn1-Pad8)*
X133560000Y-113140000D02*
X133540000Y-100160000D01*
G04 #@! TO.N,Net-(ExtIn1-Pad6)*
X128750000Y-113250000D02*
X128750000Y-98250000D01*
G04 #@! TO.N,Net-(ExtIn1-Pad4)*
X123750000Y-113250000D02*
X123750000Y-96750000D01*
G04 #@! TO.N,Net-(ExtIn1-Pad2)*
X118340000Y-108510000D02*
X118370000Y-113180000D01*
X121500000Y-105750000D02*
X118350000Y-108510000D01*
X121500000Y-93250000D02*
X121500000Y-105750000D01*
G04 #@! TO.N,Net-(ExtOut1-Pad1)*
X112760001Y-106070001D02*
X117330000Y-106060000D01*
G04 #@! TO.N,Net-(ExtOut1-Pad2)*
X112760001Y-103530001D02*
X117050000Y-103540000D01*
D15*
G04 #@! TO.N,Net-(Output1-Pad9)*
X120600000Y-118940000D02*
X120654150Y-110240000D01*
X120654150Y-110240000D02*
X120660000Y-109300000D01*
G04 #@! TO.N,Net-(Output1-Pad8)*
X123140000Y-118940000D02*
X123080000Y-115490000D01*
X123080000Y-115490000D02*
X123080000Y-114410000D01*
G04 #@! TO.N,Net-(Output1-Pad7)*
X125680000Y-118940000D02*
X125770000Y-109420000D01*
G04 #@! TO.N,Net-(Output1-Pad6)*
X128220000Y-118940000D02*
X128204035Y-115340000D01*
X128204035Y-115340000D02*
X128200000Y-114430000D01*
G04 #@! TO.N,Net-(Output1-Pad5)*
X130760000Y-118940000D02*
X130778045Y-110260000D01*
X130778045Y-110260000D02*
X130780000Y-109320000D01*
G04 #@! TO.N,Net-(Output1-Pad4)*
X133300000Y-118940000D02*
X133331648Y-115340000D01*
X133331648Y-115340000D02*
X133340000Y-114390000D01*
G04 #@! TO.N,Net-(Output1-Pad3)*
X135840000Y-118940000D02*
X135867144Y-110290000D01*
X135867144Y-110290000D02*
X135870000Y-109380000D01*
G04 #@! TO.N,Net-(Output1-Pad2)*
X138380000Y-118940000D02*
X138360000Y-115530000D01*
X138350000Y-115540000D02*
X138380000Y-114360000D01*
G04 #@! TD*
M02*
