G04 #@! TF.GenerationSoftware,KiCad,Pcbnew,(5.0.0)*
G04 #@! TF.CreationDate,2019-08-02T15:13:00-07:00*
G04 #@! TF.ProjectId,Sequence Controller,53657175656E636520436F6E74726F6C,rev?*
G04 #@! TF.SameCoordinates,Original*
G04 #@! TF.FileFunction,Copper,L1,Top,Signal*
G04 #@! TF.FilePolarity,Positive*
%FSLAX46Y46*%
G04 Gerber Fmt 4.6, Leading zero omitted, Abs format (unit mm)*
G04 Created by KiCad (PCBNEW (5.0.0)) date 08/02/19 15:13:00*
%MOMM*%
%LPD*%
G01*
G04 APERTURE LIST*
G04 #@! TA.AperFunction,ComponentPad*
%ADD10C,1.700000*%
G04 #@! TD*
G04 #@! TA.AperFunction,ComponentPad*
%ADD11O,1.700000X1.700000*%
G04 #@! TD*
G04 #@! TA.AperFunction,ComponentPad*
%ADD12R,1.700000X1.700000*%
G04 #@! TD*
G04 #@! TA.AperFunction,SMDPad,CuDef*
%ADD13R,0.900000X0.800000*%
G04 #@! TD*
G04 #@! TA.AperFunction,ViaPad*
%ADD14C,0.800000*%
G04 #@! TD*
G04 #@! TA.AperFunction,Conductor*
%ADD15C,0.500000*%
G04 #@! TD*
G04 #@! TA.AperFunction,Conductor*
%ADD16C,1.000000*%
G04 #@! TD*
G04 APERTURE END LIST*
D10*
G04 #@! TO.P,U1,1*
G04 #@! TO.N,Net-(U1-Pad1)*
X112760001Y-75590001D03*
G04 #@! TO.P,U1,2*
G04 #@! TO.N,Net-(U1-Pad2)*
X112760001Y-78130001D03*
G04 #@! TO.P,U1,3*
G04 #@! TO.N,Net-(U1-Pad3)*
X112760001Y-80670001D03*
G04 #@! TO.P,U1,4*
G04 #@! TO.N,Net-(U1-Pad4)*
X112760001Y-83210001D03*
G04 #@! TO.P,U1,5*
G04 #@! TO.N,Net-(U1-Pad5)*
X112760001Y-85750001D03*
G04 #@! TO.P,U1,6*
G04 #@! TO.N,Net-(ExtOut1-Pad3)*
X112760001Y-88290001D03*
G04 #@! TO.P,U1,7*
G04 #@! TO.N,Net-(ExtOut1-Pad4)*
X112760001Y-90830001D03*
G04 #@! TO.P,U1,8*
G04 #@! TO.N,Net-(ExtOut1-Pad5)*
X112760001Y-93370001D03*
G04 #@! TO.P,U1,9*
G04 #@! TO.N,Net-(ExtOut1-Pad6)*
X112760001Y-95910001D03*
G04 #@! TO.P,U1,10*
G04 #@! TO.N,Net-(ExtOut1-Pad7)*
X112760001Y-98450001D03*
G04 #@! TO.P,U1,11*
G04 #@! TO.N,Net-(ExtOut1-Pad8)*
X112760001Y-100990001D03*
G04 #@! TO.P,U1,12*
G04 #@! TO.N,Net-(ExtOut1-Pad2)*
X112760001Y-103530001D03*
G04 #@! TO.P,U1,13*
G04 #@! TO.N,Net-(ExtOut1-Pad1)*
X112760001Y-106070001D03*
G04 #@! TO.P,U1,14*
G04 #@! TO.N,/GND*
X112760001Y-108610001D03*
G04 #@! TO.P,U1,15*
G04 #@! TO.N,Net-(J1-Pad1)*
X112760001Y-111150001D03*
G04 #@! TO.P,U1,16*
G04 #@! TO.N,Net-(U1-Pad16)*
X140700001Y-111150001D03*
G04 #@! TO.P,U1,17*
G04 #@! TO.N,/GND*
X140700001Y-108610001D03*
G04 #@! TO.P,U1,18*
G04 #@! TO.N,Net-(U1-Pad18)*
X140700001Y-106070001D03*
G04 #@! TO.P,U1,19*
G04 #@! TO.N,Net-(ExtIn1-Pad8)*
X140700001Y-103530001D03*
G04 #@! TO.P,U1,20*
G04 #@! TO.N,Net-(ExtIn1-Pad7)*
X140700001Y-100990001D03*
G04 #@! TO.P,U1,21*
G04 #@! TO.N,Net-(U1-Pad21)*
X140700001Y-98450001D03*
G04 #@! TO.P,U1,22*
G04 #@! TO.N,Net-(U1-Pad22)*
X140700001Y-95910001D03*
G04 #@! TO.P,U1,23*
G04 #@! TO.N,Net-(ExtIn1-Pad6)*
X140700001Y-93370001D03*
G04 #@! TO.P,U1,24*
G04 #@! TO.N,Net-(ExtIn1-Pad5)*
X140700001Y-90830001D03*
G04 #@! TO.P,U1,25*
G04 #@! TO.N,Net-(ExtIn1-Pad4)*
X140700001Y-88290001D03*
G04 #@! TO.P,U1,26*
G04 #@! TO.N,Net-(ExtIn1-Pad3)*
X140700001Y-85750001D03*
G04 #@! TO.P,U1,27*
G04 #@! TO.N,Net-(U1-Pad27)*
X140700001Y-83210001D03*
G04 #@! TO.P,U1,28*
G04 #@! TO.N,Net-(U1-Pad28)*
X140700001Y-80670001D03*
G04 #@! TO.P,U1,29*
G04 #@! TO.N,Net-(ExtIn1-Pad2)*
X140700001Y-78130001D03*
G04 #@! TO.P,U1,30*
G04 #@! TO.N,Net-(ExtIn1-Pad1)*
X140700001Y-75590001D03*
G04 #@! TD*
D11*
G04 #@! TO.P,ExtIn1,9*
G04 #@! TO.N,/GND*
X136410000Y-100140000D03*
G04 #@! TO.P,ExtIn1,8*
G04 #@! TO.N,Net-(ExtIn1-Pad8)*
X136410000Y-97600000D03*
G04 #@! TO.P,ExtIn1,7*
G04 #@! TO.N,Net-(ExtIn1-Pad7)*
X136410000Y-95060000D03*
G04 #@! TO.P,ExtIn1,6*
G04 #@! TO.N,Net-(ExtIn1-Pad6)*
X136410000Y-92520000D03*
G04 #@! TO.P,ExtIn1,5*
G04 #@! TO.N,Net-(ExtIn1-Pad5)*
X136410000Y-89980000D03*
G04 #@! TO.P,ExtIn1,4*
G04 #@! TO.N,Net-(ExtIn1-Pad4)*
X136410000Y-87440000D03*
G04 #@! TO.P,ExtIn1,3*
G04 #@! TO.N,Net-(ExtIn1-Pad3)*
X136410000Y-84900000D03*
G04 #@! TO.P,ExtIn1,2*
G04 #@! TO.N,Net-(ExtIn1-Pad2)*
X136410000Y-82360000D03*
D12*
G04 #@! TO.P,ExtIn1,1*
G04 #@! TO.N,Net-(ExtIn1-Pad1)*
X136410000Y-79820000D03*
G04 #@! TD*
G04 #@! TO.P,ExtOut1,1*
G04 #@! TO.N,Net-(ExtOut1-Pad1)*
X116820000Y-79820000D03*
D11*
G04 #@! TO.P,ExtOut1,2*
G04 #@! TO.N,Net-(ExtOut1-Pad2)*
X116820000Y-82360000D03*
G04 #@! TO.P,ExtOut1,3*
G04 #@! TO.N,Net-(ExtOut1-Pad3)*
X116820000Y-84900000D03*
G04 #@! TO.P,ExtOut1,4*
G04 #@! TO.N,Net-(ExtOut1-Pad4)*
X116820000Y-87440000D03*
G04 #@! TO.P,ExtOut1,5*
G04 #@! TO.N,Net-(ExtOut1-Pad5)*
X116820000Y-89980000D03*
G04 #@! TO.P,ExtOut1,6*
G04 #@! TO.N,Net-(ExtOut1-Pad6)*
X116820000Y-92520000D03*
G04 #@! TO.P,ExtOut1,7*
G04 #@! TO.N,Net-(ExtOut1-Pad7)*
X116820000Y-95060000D03*
G04 #@! TO.P,ExtOut1,8*
G04 #@! TO.N,Net-(ExtOut1-Pad8)*
X116820000Y-97600000D03*
G04 #@! TO.P,ExtOut1,9*
G04 #@! TO.N,/GND*
X116820000Y-100140000D03*
G04 #@! TD*
G04 #@! TO.P,Output1,9*
G04 #@! TO.N,Net-(Output1-Pad9)*
X120600000Y-118940000D03*
G04 #@! TO.P,Output1,8*
G04 #@! TO.N,Net-(Output1-Pad8)*
X123140000Y-118940000D03*
G04 #@! TO.P,Output1,7*
G04 #@! TO.N,Net-(Output1-Pad7)*
X125680000Y-118940000D03*
G04 #@! TO.P,Output1,6*
G04 #@! TO.N,Net-(Output1-Pad6)*
X128220000Y-118940000D03*
G04 #@! TO.P,Output1,5*
G04 #@! TO.N,Net-(Output1-Pad5)*
X130760000Y-118940000D03*
G04 #@! TO.P,Output1,4*
G04 #@! TO.N,Net-(Output1-Pad4)*
X133300000Y-118940000D03*
G04 #@! TO.P,Output1,3*
G04 #@! TO.N,Net-(Output1-Pad3)*
X135840000Y-118940000D03*
G04 #@! TO.P,Output1,2*
G04 #@! TO.N,Net-(Output1-Pad2)*
X138380000Y-118940000D03*
D12*
G04 #@! TO.P,Output1,1*
G04 #@! TO.N,/GND*
X140920000Y-118940000D03*
G04 #@! TD*
D13*
G04 #@! TO.P,Q1,3*
G04 #@! TO.N,Net-(Output1-Pad9)*
X119280000Y-109320000D03*
G04 #@! TO.P,Q1,2*
G04 #@! TO.N,/GND*
X117280000Y-110270000D03*
G04 #@! TO.P,Q1,1*
G04 #@! TO.N,Net-(ExtIn1-Pad1)*
X117280000Y-108370000D03*
G04 #@! TD*
G04 #@! TO.P,Q2,1*
G04 #@! TO.N,Net-(ExtIn1-Pad2)*
X119780000Y-113440000D03*
G04 #@! TO.P,Q2,2*
G04 #@! TO.N,/GND*
X119780000Y-115340000D03*
G04 #@! TO.P,Q2,3*
G04 #@! TO.N,Net-(Output1-Pad8)*
X121780000Y-114390000D03*
G04 #@! TD*
G04 #@! TO.P,Q3,3*
G04 #@! TO.N,Net-(Output1-Pad7)*
X124420000Y-109320000D03*
G04 #@! TO.P,Q3,2*
G04 #@! TO.N,/GND*
X122420000Y-110270000D03*
G04 #@! TO.P,Q3,1*
G04 #@! TO.N,Net-(ExtIn1-Pad3)*
X122420000Y-108370000D03*
G04 #@! TD*
G04 #@! TO.P,Q4,3*
G04 #@! TO.N,Net-(Output1-Pad6)*
X126910000Y-114390000D03*
G04 #@! TO.P,Q4,2*
G04 #@! TO.N,/GND*
X124910000Y-115340000D03*
G04 #@! TO.P,Q4,1*
G04 #@! TO.N,Net-(ExtIn1-Pad4)*
X124910000Y-113440000D03*
G04 #@! TD*
G04 #@! TO.P,Q5,1*
G04 #@! TO.N,Net-(ExtIn1-Pad5)*
X127260000Y-108370000D03*
G04 #@! TO.P,Q5,2*
G04 #@! TO.N,/GND*
X127260000Y-110270000D03*
G04 #@! TO.P,Q5,3*
G04 #@! TO.N,Net-(Output1-Pad5)*
X129260000Y-109320000D03*
G04 #@! TD*
G04 #@! TO.P,Q6,1*
G04 #@! TO.N,Net-(ExtIn1-Pad6)*
X130080000Y-113440000D03*
G04 #@! TO.P,Q6,2*
G04 #@! TO.N,/GND*
X130080000Y-115340000D03*
G04 #@! TO.P,Q6,3*
G04 #@! TO.N,Net-(Output1-Pad4)*
X132080000Y-114390000D03*
G04 #@! TD*
G04 #@! TO.P,Q7,3*
G04 #@! TO.N,Net-(Output1-Pad3)*
X134140000Y-109320000D03*
G04 #@! TO.P,Q7,2*
G04 #@! TO.N,/GND*
X132140000Y-110270000D03*
G04 #@! TO.P,Q7,1*
G04 #@! TO.N,Net-(ExtIn1-Pad7)*
X132140000Y-108370000D03*
G04 #@! TD*
G04 #@! TO.P,Q8,1*
G04 #@! TO.N,Net-(ExtIn1-Pad8)*
X134910000Y-113440000D03*
G04 #@! TO.P,Q8,2*
G04 #@! TO.N,/GND*
X134910000Y-115340000D03*
G04 #@! TO.P,Q8,3*
G04 #@! TO.N,Net-(Output1-Pad2)*
X136910000Y-114390000D03*
G04 #@! TD*
D11*
G04 #@! TO.P,J1,2*
G04 #@! TO.N,/GND*
X115420000Y-118940000D03*
D12*
G04 #@! TO.P,J1,1*
G04 #@! TO.N,Net-(J1-Pad1)*
X112880000Y-118940000D03*
G04 #@! TD*
D14*
G04 #@! TO.N,Net-(ExtIn1-Pad8)*
X133550000Y-113150000D03*
X133540000Y-100160000D03*
G04 #@! TO.N,Net-(ExtIn1-Pad6)*
X128750000Y-98250000D03*
X128750000Y-113250000D03*
G04 #@! TO.N,Net-(ExtIn1-Pad4)*
X123750000Y-96750000D03*
X123750000Y-113250000D03*
G04 #@! TO.N,Net-(ExtIn1-Pad2)*
X118370000Y-113180000D03*
X121500000Y-93250000D03*
G04 #@! TO.N,Net-(ExtOut1-Pad1)*
X117330000Y-106060000D03*
G04 #@! TO.N,Net-(ExtOut1-Pad2)*
X117050000Y-103540000D03*
G04 #@! TO.N,Net-(Output1-Pad9)*
X120670000Y-109300000D03*
X120654150Y-110240000D03*
G04 #@! TO.N,Net-(Output1-Pad8)*
X123080000Y-115490000D03*
X123080000Y-114410000D03*
G04 #@! TO.N,Net-(Output1-Pad7)*
X125761397Y-110330000D03*
X125800000Y-109320000D03*
G04 #@! TO.N,Net-(Output1-Pad6)*
X128210000Y-114430000D03*
X128204035Y-115340000D03*
G04 #@! TO.N,Net-(Output1-Pad5)*
X130720000Y-109310000D03*
X130778045Y-110260000D03*
G04 #@! TO.N,Net-(Output1-Pad4)*
X133330000Y-114420000D03*
X133331648Y-115340000D03*
G04 #@! TO.N,Net-(Output1-Pad3)*
X135867144Y-110290000D03*
X135870000Y-109320000D03*
G04 #@! TO.N,Net-(Output1-Pad2)*
X138350000Y-115540000D03*
X138380000Y-114360000D03*
G04 #@! TD*
D15*
G04 #@! TO.N,Net-(ExtIn1-Pad8)*
X134910000Y-113440000D02*
X133550000Y-113150000D01*
X138150000Y-101370000D02*
X140700001Y-103530001D01*
X136410000Y-97600000D02*
X138170000Y-98970000D01*
X138170000Y-98970000D02*
X138150000Y-101370000D01*
X133540000Y-100160000D02*
X136410000Y-97600000D01*
G04 #@! TO.N,Net-(ExtIn1-Pad7)*
X139590000Y-99820000D02*
X140700001Y-100990001D01*
X138910000Y-98790000D02*
X139590000Y-99820000D01*
X138910000Y-96040000D02*
X138910000Y-98790000D01*
X136410000Y-95060000D02*
X137650000Y-95060000D01*
X137650000Y-95060000D02*
X138910000Y-96040000D01*
X132250000Y-98750000D02*
X136410000Y-95060000D01*
X132250000Y-108250000D02*
X132250000Y-98750000D01*
G04 #@! TO.N,Net-(ExtIn1-Pad6)*
X136410000Y-92520000D02*
X140700001Y-93370001D01*
X136410000Y-92520000D02*
X128750000Y-98250000D01*
X130080000Y-113440000D02*
X128750000Y-113250000D01*
G04 #@! TO.N,Net-(ExtIn1-Pad5)*
X136410000Y-89980000D02*
X140700001Y-90830001D01*
X127240000Y-96690000D02*
X127250000Y-108360000D01*
X136410000Y-89980000D02*
X127240000Y-96690000D01*
G04 #@! TO.N,Net-(ExtIn1-Pad4)*
X136410000Y-87440000D02*
X140700001Y-88290001D01*
X136410000Y-87440000D02*
X123750000Y-96750000D01*
X124910000Y-113440000D02*
X123750000Y-113250000D01*
G04 #@! TO.N,Net-(ExtIn1-Pad3)*
X136410000Y-84900000D02*
X140700001Y-85750001D01*
X122440000Y-95360000D02*
X122390000Y-108300000D01*
X136410000Y-84900000D02*
X122440000Y-95360000D01*
G04 #@! TO.N,Net-(ExtIn1-Pad2)*
X119780000Y-113440000D02*
X118370000Y-113180000D01*
X139000000Y-78250000D02*
X140700001Y-78130001D01*
X138580000Y-78920000D02*
X139000000Y-78250000D01*
X138550000Y-81850000D02*
X138580000Y-78920000D01*
X136410000Y-82360000D02*
X138200000Y-82340000D01*
X138200000Y-82340000D02*
X138550000Y-81850000D01*
X136410000Y-82360000D02*
X121500000Y-93250000D01*
G04 #@! TO.N,Net-(ExtIn1-Pad1)*
X140700001Y-75590001D02*
X138670000Y-75540000D01*
X138670000Y-75540000D02*
X136470000Y-77070000D01*
X136470000Y-77070000D02*
X136410000Y-79820000D01*
X120260000Y-105230000D02*
X117240000Y-108340000D01*
X136410000Y-79820000D02*
X120280000Y-91340000D01*
X120280000Y-91340000D02*
X120260000Y-105230000D01*
G04 #@! TO.N,Net-(ExtOut1-Pad1)*
X119380000Y-81790000D02*
X116820000Y-79820000D01*
X119380000Y-81790000D02*
X119377508Y-103459822D01*
X119377508Y-103459822D02*
X119320000Y-103460000D01*
X119377508Y-103459822D02*
X117330000Y-106060000D01*
G04 #@! TO.N,Net-(ExtOut1-Pad2)*
X118480000Y-83440000D02*
X116820000Y-82360000D01*
X118450000Y-102730000D02*
X118480000Y-83440000D01*
X117050000Y-103540000D02*
X118450000Y-102730000D01*
G04 #@! TO.N,Net-(ExtOut1-Pad3)*
X116820000Y-84900000D02*
X112760001Y-88290001D01*
G04 #@! TO.N,Net-(ExtOut1-Pad4)*
X116820000Y-87440000D02*
X112760001Y-90830001D01*
G04 #@! TO.N,Net-(ExtOut1-Pad5)*
X116820000Y-89980000D02*
X112760001Y-93370001D01*
G04 #@! TO.N,Net-(ExtOut1-Pad6)*
X116820000Y-92520000D02*
X112760001Y-95910001D01*
G04 #@! TO.N,Net-(ExtOut1-Pad7)*
X116820000Y-95060000D02*
X112760001Y-98450001D01*
G04 #@! TO.N,Net-(ExtOut1-Pad8)*
X116820000Y-97600000D02*
X112760001Y-100990001D01*
D16*
G04 #@! TO.N,Net-(Output1-Pad9)*
X119280000Y-109320000D02*
X120670000Y-109300000D01*
X120670000Y-109300000D02*
X120654150Y-110240000D01*
G04 #@! TO.N,Net-(Output1-Pad8)*
X121780000Y-114390000D02*
X123080000Y-114410000D01*
X123080000Y-114410000D02*
X123080000Y-115490000D01*
X123080000Y-114410000D02*
X123080000Y-114410000D01*
G04 #@! TO.N,Net-(Output1-Pad7)*
X125800000Y-109320000D02*
X124420000Y-109320000D01*
X125761397Y-110330000D02*
X125800000Y-109320000D01*
G04 #@! TO.N,Net-(Output1-Pad6)*
X126910000Y-114390000D02*
X128210000Y-114430000D01*
X128210000Y-114430000D02*
X128204035Y-115340000D01*
G04 #@! TO.N,Net-(Output1-Pad5)*
X130720000Y-109310000D02*
X129260000Y-109320000D01*
X130720000Y-109310000D02*
X130778045Y-110260000D01*
G04 #@! TO.N,Net-(Output1-Pad4)*
X133330000Y-114420000D02*
X132080000Y-114470000D01*
X133330000Y-114420000D02*
X133331648Y-115340000D01*
G04 #@! TO.N,Net-(Output1-Pad3)*
X135870000Y-109320000D02*
X135867144Y-110290000D01*
X135870000Y-109320000D02*
X134140000Y-109320000D01*
G04 #@! TO.N,Net-(Output1-Pad2)*
X136910000Y-114390000D02*
X138380000Y-114360000D01*
X138380000Y-114360000D02*
X138350000Y-115540000D01*
X138380000Y-114360000D02*
X138380000Y-114360000D01*
G04 #@! TO.N,/GND*
X140700001Y-108610001D02*
X139600000Y-108600000D01*
X139600000Y-108600000D02*
X138780000Y-109360000D01*
X138780000Y-109360000D02*
X138844429Y-110640000D01*
X132140000Y-110270000D02*
X132120000Y-111818605D01*
X115460000Y-108570000D02*
X112760001Y-108610001D01*
X117280000Y-110270000D02*
X117270000Y-111775228D01*
X122420000Y-110270000D02*
X122400000Y-111790212D01*
X127260000Y-110270000D02*
X127280000Y-111804466D01*
X140700001Y-108610001D02*
X136420000Y-105000000D01*
X136420000Y-105000000D02*
X136410000Y-100140000D01*
X115460000Y-108570000D02*
X115530000Y-101890000D01*
X115530000Y-101890000D02*
X116820000Y-100140000D01*
X115420000Y-118940000D02*
X115430695Y-116710000D01*
X134890000Y-115320000D02*
X134910000Y-116780000D01*
X130070000Y-115300000D02*
X130070000Y-116740000D01*
X124940000Y-115390000D02*
X124920000Y-116720000D01*
X119730000Y-115320000D02*
X119750000Y-116670000D01*
X138805290Y-111920000D02*
X138844429Y-110640000D01*
X115470000Y-112060000D02*
X115460000Y-108570000D01*
X115430695Y-116710000D02*
X141000000Y-116750000D01*
X138790000Y-112420000D02*
X138805290Y-111920000D01*
X141000000Y-114000000D02*
X138790000Y-112420000D01*
X140920000Y-118940000D02*
X140960000Y-116730000D01*
X140960000Y-116730000D02*
X141000000Y-114000000D01*
X115430695Y-116710000D02*
X115440000Y-111960000D01*
X115480000Y-111840000D02*
X138805290Y-111920000D01*
G04 #@! TO.N,Net-(J1-Pad1)*
X112880000Y-118940000D02*
X112760001Y-111150001D01*
G04 #@! TD*
M02*
