M48
;DRILL file {KiCad (5.0.0)} date 09/03/19 16:24:49
;FORMAT={-:-/ absolute / inch / decimal}
FMAT,2
INCH,TZ
T1C0.0157
T2C0.0394
%
G90
G05
M72
T1
X4.6083Y-4.0764
X4.6193Y-4.1756
X4.6496Y-4.6364
X4.7416Y-4.4936
X4.7416Y-4.5343
X4.7733Y-3.6683
X4.8358Y-4.6892
X4.8358Y-4.7299
X4.8637Y-4.6387
X4.872Y-3.8091
X4.9426Y-4.5317
X4.9435Y-4.4938
X5.0378Y-4.6892
X5.0385Y-4.7306
X5.0604Y-4.6409
X5.0615Y-3.8549
X5.138Y-4.5321
X5.1388Y-4.4906
X5.2009Y-3.9285
X5.2412Y-4.6907
X5.2412Y-4.7291
X5.2503Y-4.6439
X5.3377Y-4.5404
X5.3384Y-4.4953
X5.4357Y-4.7269
X5.4749Y-4.7269
T2
X5.28Y-3.1425
X5.28Y-3.2425
X5.28Y-3.3425
X5.28Y-3.4425
X5.28Y-3.5425
X5.28Y-3.6425
X5.28Y-3.7425
X5.28Y-3.8425
X5.28Y-3.9425
X4.5992Y-3.1425
X4.5992Y-3.2425
X4.5992Y-3.3425
X4.5992Y-3.4425
X4.5992Y-3.5425
X4.5992Y-3.6425
X4.5992Y-3.7425
X4.5992Y-3.8425
X4.5992Y-3.9425
X4.4393Y-4.8806
X4.5393Y-4.8806
X4.6393Y-4.8806
X4.7393Y-4.8806
X4.8393Y-4.8806
X4.9393Y-4.8806
X5.0393Y-4.8806
X5.1393Y-4.8806
X5.2393Y-4.8806
X5.3393Y-4.8806
X5.4393Y-4.8806
X4.44Y-2.975
X4.44Y-3.075
X4.44Y-3.175
X4.44Y-3.275
X4.44Y-3.375
X4.44Y-3.475
X4.44Y-3.575
X4.44Y-3.675
X4.44Y-3.775
X4.44Y-3.875
X4.44Y-3.975
X4.44Y-4.075
X4.44Y-4.175
X4.44Y-4.275
X4.44Y-4.375
X5.44Y-2.975
X5.44Y-3.075
X5.44Y-3.175
X5.44Y-3.275
X5.44Y-3.375
X5.44Y-3.475
X5.44Y-3.575
X5.44Y-3.675
X5.44Y-3.775
X5.44Y-3.875
X5.44Y-3.975
X5.44Y-4.075
X5.44Y-4.175
X5.44Y-4.275
X5.44Y-4.375
T0
M30
